<svg xmlns="http://www.w3.org/2000/svg" width="22.767" height="22.767" viewBox="0 0 22.767 22.767">
  <g id="google" transform="translate(0 0.145)">
    <path id="Ellipse" d="M0,11.383A11.383,11.383,0,1,1,11.383,22.767,11.383,11.383,0,0,1,0,11.383Z" transform="translate(0 -0.145)" fill="#0175ff"/>
    <g id="google-2" data-name="google" transform="translate(5.692 4.98)">
      <path id="Shape" d="M0,0H10.672V10.672H0Z" fill="none"/>
    </g>
    <path id="Shape-2" data-name="Shape" d="M.473,2.45A4.445,4.445,0,0,1,4.447,0,4.27,4.27,0,0,1,7.421,1.158L6.147,2.434a2.4,2.4,0,0,0-1.7-.665A2.671,2.671,0,0,0,1.959,5.291,2.682,2.682,0,0,0,5.952,6.7,2.045,2.045,0,0,0,6.84,5.358H4.447V3.638H8.634a5.113,5.113,0,0,1,.081.909A4.334,4.334,0,0,1,7.389,7.816,4.243,4.243,0,0,1,4.447,8.893,4.447,4.447,0,0,1,.473,2.45Z" transform="translate(6.581 6.855)" fill="#fff"/>
  </g>
</svg>
