<svg id="Group_162327" data-name="Group 162327" xmlns="http://www.w3.org/2000/svg" xmlns:xlink="http://www.w3.org/1999/xlink" width="122.083" height="56.778" viewBox="0 0 122.083 56.778">
  <defs>
    <clipPath id="clip-path">
      <path id="Path_440" data-name="Path 440" d="M0,93.355l.032,15.593a1.554,1.554,0,0,0,.67,1.275l13.752,9.521-.052.013,3.05,2.134a2.526,2.526,0,0,0,2.685,0c.39-.26,2.026-1.389,4.152-2.859.079-.055.15-.107.217-.157l4.166-2.851-4.027-4.474-4.435,2.957a1.684,1.684,0,0,1-1.868,0L6.575,106.664a1.625,1.625,0,0,1-.723-1.355L5.817,93.292Z" transform="translate(0 -93.292)" fill="#fff"/>
    </clipPath>
    <clipPath id="clip-path-2">
      <path id="Path_440-2" data-name="Path 440" d="M0,.063.032,15.656A1.554,1.554,0,0,0,.7,16.931l13.752,9.521-.052.013,3.05,2.134a2.526,2.526,0,0,0,2.685,0c.39-.26,2.026-1.389,4.152-2.859.079-.055.15-.107.217-.157l4.166-2.851-4.027-4.474-4.435,2.957a1.684,1.684,0,0,1-1.868,0L6.575,13.372a1.625,1.625,0,0,1-.723-1.355L5.817,0Z" fill="#fff"/>
    </clipPath>
    <clipPath id="clip-path-3">
      <rect id="Rectangle_46" data-name="Rectangle 46" width="122.083" height="56.778" fill="#fff"/>
    </clipPath>
  </defs>
  <g id="Group_198" data-name="Group 198" transform="translate(0 0)">
    <g id="Group_183" data-name="Group 183" transform="translate(0 27.78)">
      <g id="Group_182" data-name="Group 182" clip-path="url(#clip-path)">
        <rect id="Rectangle_44" data-name="Rectangle 44" width="28.671" height="29.495" fill="#fff"/>
      </g>
    </g>
    <g id="Group_187" data-name="Group 187" transform="translate(51.939 28.997) rotate(180)">
      <g id="Group_182-2" data-name="Group 182" clip-path="url(#clip-path-2)">
        <rect id="Rectangle_44-2" data-name="Rectangle 44" width="28.671" height="29.495" fill="#fff"/>
      </g>
    </g>
  </g>
  <g id="Group_184" data-name="Group 184" clip-path="url(#clip-path-3)">
    <path id="Path_441" data-name="Path 441" d="M28.544,6.206,20.247.4a2.525,2.525,0,0,0-2.685,0C16.382,1.184,3.8,9.919.766,12.025a1.524,1.524,0,0,0-.655,1.254V27.469a2.909,2.909,0,0,0,5.817,0V16.855A1.528,1.528,0,0,1,6.58,15.6l11.944-8.36A1.528,1.528,0,0,1,20.209,7.2l2,1.252a1.528,1.528,0,0,1,.718,1.3v4.619a1.528,1.528,0,0,1-.655,1.254L13.3,21.867a1.528,1.528,0,0,0-.655,1.255V33.957a2.685,2.685,0,1,0,5.37,0V26.686a1.528,1.528,0,0,1,.635-1.24l9.916-7.14a1.529,1.529,0,0,0,.635-1.24V7.458a1.528,1.528,0,0,0-.652-1.252" transform="translate(-0.078 0)" fill="#fff"/>
    <path id="Path_442" data-name="Path 442" d="M77.4,98.056l8.3,5.808a2.525,2.525,0,0,0,2.685,0c1.18-.786,13.763-9.521,16.8-11.627a1.524,1.524,0,0,0,.655-1.254V76.793a2.909,2.909,0,0,0-5.817,0V87.408a1.528,1.528,0,0,1-.652,1.252L87.42,97.02a1.528,1.528,0,0,1-1.686.044l-2-1.252a1.528,1.528,0,0,1-.718-1.3V89.9a1.528,1.528,0,0,1,.655-1.254l8.981-6.247A1.528,1.528,0,0,0,93.3,81.14V70.3a2.685,2.685,0,0,0-5.37,0v7.272a1.528,1.528,0,0,1-.635,1.24l-9.916,7.14a1.529,1.529,0,0,0-.635,1.24V96.8a1.528,1.528,0,0,0,.652,1.252" transform="translate(-53.893 -47.484)" fill="#fff"/>
    <path id="Path_443" data-name="Path 443" d="M77.65,89.068q0-1.319,0-2.638a.84.84,0,0,1,.65-.837.83.83,0,0,1,.635.108q1.207.7,2.416,1.4.918.531,1.836,1.062a.877.877,0,0,1,.442.622.9.9,0,0,1-.417.945q-.951.6-1.9,1.2-1.184.748-2.367,1.494a.829.829,0,0,1-1.2-.32.864.864,0,0,1-.09-.4q0-1.319,0-2.638" transform="translate(-54.528 -60.089)" fill="#fff"/>
    <path id="Path_444" data-name="Path 444" d="M201.628,73.448l-2.161-3.755a.309.309,0,0,0-.267-.155h-.785a.309.309,0,0,0-.309.308v3.447a.309.309,0,0,1-.308.308h-1.05a.309.309,0,0,1-.309-.308V63.751a.309.309,0,0,1,.309-.308h3.2a4.362,4.362,0,0,1,1.981.409,2.841,2.841,0,0,1,1.213,1.1,2.983,2.983,0,0,1,.4,1.535,3.041,3.041,0,0,1-.577,1.805,2.766,2.766,0,0,1-1.416,1,.3.3,0,0,0-.157.446l2.032,3.4a.309.309,0,0,1-.265.467H201.9a.308.308,0,0,1-.267-.155M198.106,67.9a.309.309,0,0,0,.309.309h1.534a1.932,1.932,0,0,0,1.411-.468,1.685,1.685,0,0,0,.475-1.257,1.625,1.625,0,0,0-.468-1.235,1.989,1.989,0,0,0-1.418-.446h-1.534a.308.308,0,0,0-.309.308Z" transform="translate(-137.944 -44.55)" fill="#fff"/>
    <path id="Path_445" data-name="Path 445" d="M230.608,71.492h-3.923a.234.234,0,0,0-.221.156l-.621,1.763a.234.234,0,0,1-.221.156h-1.242a.234.234,0,0,1-.22-.313l3.473-9.707a.234.234,0,0,1,.22-.155h1.6a.234.234,0,0,1,.22.155l3.473,9.707a.234.234,0,0,1-.22.313H231.67a.233.233,0,0,1-.221-.156l-.621-1.763a.234.234,0,0,0-.221-.156m-.411-1.671-1.323-3.782a.234.234,0,0,0-.442,0L227.1,69.821a.234.234,0,0,0,.221.312h2.658a.234.234,0,0,0,.221-.311" transform="translate(-157.401 -44.516)" fill="#fff"/>
    <path id="Path_446" data-name="Path 446" d="M263.944,73.524l-3.467-4.008a.227.227,0,0,0-.4.148v3.711a.227.227,0,0,1-.227.227h-1.213a.227.227,0,0,1-.227-.227V63.669a.227.227,0,0,1,.227-.227h1.213a.227.227,0,0,1,.227.227v3.792a.227.227,0,0,0,.4.147l3.48-4.086a.227.227,0,0,1,.173-.08h1.489a.227.227,0,0,1,.171.375l-3.959,4.562a.227.227,0,0,0,0,.3l4.023,4.547a.227.227,0,0,1-.17.377h-1.571a.227.227,0,0,1-.172-.078" transform="translate(-181.463 -44.55)" fill="#fff"/>
    <path id="Path_447" data-name="Path 447" d="M303.236,73.036a3.02,3.02,0,0,1-1.286-1.016,2.487,2.487,0,0,1-.437-1.1.381.381,0,0,1,.378-.433h1.043a.386.386,0,0,1,.379.283,1.574,1.574,0,0,0,.473.8,1.841,1.841,0,0,0,1.294.424,1.992,1.992,0,0,0,1.345-.417,1.354,1.354,0,0,0,.482-1.075,1.174,1.174,0,0,0-.3-.833,2.006,2.006,0,0,0-.745-.5,11.279,11.279,0,0,0-1.236-.38,11.549,11.549,0,0,1-1.615-.533,2.667,2.667,0,0,1-1.06-.841,2.428,2.428,0,0,1-.439-1.52,2.7,2.7,0,0,1,.439-1.535,2.8,2.8,0,0,1,1.228-1.009A4.459,4.459,0,0,1,305,63a3.81,3.81,0,0,1,2.419.738A2.646,2.646,0,0,1,308.4,65.3a.382.382,0,0,1-.373.462h-1.093a.365.365,0,0,1-.355-.256,1.39,1.39,0,0,0-.48-.694,1.945,1.945,0,0,0-1.272-.395,1.8,1.8,0,0,0-1.169.366,1.273,1.273,0,0,0-.453,1.053,1.067,1.067,0,0,0,.285.767,2.015,2.015,0,0,0,.724.475,11.2,11.2,0,0,0,1.2.38,12.6,12.6,0,0,1,1.645.555,2.741,2.741,0,0,1,1.082.855,2.459,2.459,0,0,1,.446,1.542,2.769,2.769,0,0,1-.417,1.462,3,3,0,0,1-1.213,1.1,4,4,0,0,1-1.879.416,4.55,4.55,0,0,1-1.842-.358" transform="translate(-211.726 -44.24)" fill="#fff"/>
    <path id="Path_448" data-name="Path 448" d="M333.609,68.195l3.185,3.448a.243.243,0,0,1-.178.408H335.03a.243.243,0,0,1-.184-.084l-2.483-2.884a.243.243,0,0,0-.427.158v2.567a.243.243,0,0,1-.243.243h-1.181a.243.243,0,0,1-.243-.243V61.475a.243.243,0,0,1,.243-.243h1.181a.243.243,0,0,1,.243.243v5.37a.243.243,0,0,0,.43.155l2.421-2.918a.243.243,0,0,1,.187-.088h1.642a.243.243,0,0,1,.179.407l-3.186,3.463a.243.243,0,0,0,0,.329" transform="translate(-231.923 -42.998)" fill="#fff"/>
    <path id="Path_449" data-name="Path 449" d="M355.4,61.587a1.067,1.067,0,0,1,.76-1.827,1.016,1.016,0,0,1,.746.307,1.1,1.1,0,0,1,0,1.52,1.016,1.016,0,0,1-.746.307,1.033,1.033,0,0,1-.76-.307m1.579,1.752v7.3a.378.378,0,0,1-.378.378h-.911a.378.378,0,0,1-.378-.378v-7.3a.378.378,0,0,1,.378-.378h.911a.378.378,0,0,1,.378.378" transform="translate(-249.355 -41.965)" fill="#fff"/>
    <path id="Path_450" data-name="Path 450" d="M368.821,61.506V71.778a.273.273,0,0,1-.273.273h-1.121a.273.273,0,0,1-.273-.273V61.506a.273.273,0,0,1,.273-.273h1.121a.273.273,0,0,1,.273.273" transform="translate(-257.824 -42.999)" fill="#fff"/>
    <path id="Path_451" data-name="Path 451" d="M380.146,61.622V71.66a.391.391,0,0,1-.391.39h-.886a.39.39,0,0,1-.39-.39V61.622a.39.39,0,0,1,.39-.39h.886a.391.391,0,0,1,.391.39" transform="translate(-265.776 -42.998)" fill="#fff"/>
    <path id="Path_452" data-name="Path 452" d="M390.15,78.045a2.988,2.988,0,0,1-1.191-.936,2.351,2.351,0,0,1-.385-.783.44.44,0,0,1,.435-.54h.858a.441.441,0,0,1,.414.3,1.235,1.235,0,0,0,.426.559,1.776,1.776,0,0,0,1.118.343,1.885,1.885,0,0,0,1.089-.27.817.817,0,0,0,.387-.694.713.713,0,0,0-.431-.672,8.118,8.118,0,0,0-1.367-.483,13.119,13.119,0,0,1-1.476-.482,2.588,2.588,0,0,1-.987-.716,1.878,1.878,0,0,1-.417-1.272,1.984,1.984,0,0,1,.38-1.177,2.532,2.532,0,0,1,1.089-.841,4.073,4.073,0,0,1,1.63-.307,3.368,3.368,0,0,1,2.215.694,2.393,2.393,0,0,1,.828,1.357.447.447,0,0,1-.438.537h-.8a.443.443,0,0,1-.42-.313,1.152,1.152,0,0,0-.378-.549,1.64,1.64,0,0,0-1.067-.322,1.731,1.731,0,0,0-1.009.249.77.77,0,0,0-.351.658.711.711,0,0,0,.234.541,1.654,1.654,0,0,0,.57.344q.336.125.994.315a10.745,10.745,0,0,1,1.44.475,2.688,2.688,0,0,1,.972.709,1.877,1.877,0,0,1,.424,1.242,2.084,2.084,0,0,1-.38,1.228,2.517,2.517,0,0,1-1.074.847,4,4,0,0,1-1.63.307,4.058,4.058,0,0,1-1.7-.343" transform="translate(-272.854 -49.205)" fill="#fff"/>
    <path id="Path_453" data-name="Path 453" d="M198.39,115.963a1.687,1.687,0,0,1-.64-.683,2.269,2.269,0,0,1,0-1.994,1.687,1.687,0,0,1,.64-.683,1.9,1.9,0,0,1,1.86,0,1.692,1.692,0,0,1,.641.683,2.274,2.274,0,0,1,0,1.994,1.692,1.692,0,0,1-.641.683,1.9,1.9,0,0,1-1.86,0m1.788-.075a1.576,1.576,0,0,0,.608-.638,2.215,2.215,0,0,0,0-1.935,1.578,1.578,0,0,0-.608-.638,1.764,1.764,0,0,0-1.715,0,1.578,1.578,0,0,0-.608.638,2.215,2.215,0,0,0,0,1.935,1.576,1.576,0,0,0,.608.638,1.764,1.764,0,0,0,1.715,0" transform="translate(-138.702 -78.9)" fill="#fff" stroke="#fff" stroke-width="0.2"/>
    <path id="Path_454" data-name="Path 454" d="M219.957,115.518a1.272,1.272,0,0,1,.327.954v1.688h-.1v-1.7a1.206,1.206,0,0,0-.284-.865,1.024,1.024,0,0,0-.777-.3,1.072,1.072,0,0,0-.825.335,1.4,1.4,0,0,0-.311.989v1.538h-.107v-2.894h.107v.761a1.022,1.022,0,0,1,.407-.614,1.25,1.25,0,0,1,.729-.212,1.153,1.153,0,0,1,.836.316" transform="translate(-152.998 -80.897)" fill="#fff" stroke="#fff" stroke-width="0.2"/>
    <rect id="Rectangle_45" data-name="Rectangle 45" width="0.107" height="3.966" transform="translate(69.853 33.297)" fill="#fff" stroke="#fff" stroke-width="0.2"/>
    <path id="Path_455" data-name="Path 455" d="M243.405,112.211a.156.156,0,0,1,0-.209.142.142,0,0,1,.2,0,.155.155,0,0,1,0,.209.142.142,0,0,1-.2,0m.153,3.674h-.107v-2.894h.107Z" transform="translate(-170.896 -78.622)" fill="#fff" stroke="#fff" stroke-width="0.2"/>
    <path id="Path_456" data-name="Path 456" d="M254.8,115.518a1.272,1.272,0,0,1,.327.954v1.688h-.1v-1.7a1.206,1.206,0,0,0-.284-.865,1.024,1.024,0,0,0-.777-.3,1.073,1.073,0,0,0-.825.335,1.405,1.405,0,0,0-.311.989v1.538h-.107v-2.894h.107v.761a1.022,1.022,0,0,1,.407-.614,1.25,1.25,0,0,1,.729-.212,1.153,1.153,0,0,1,.836.316" transform="translate(-177.469 -80.897)" fill="#fff" stroke="#fff" stroke-width="0.2"/>
    <path id="Path_457" data-name="Path 457" d="M271.193,117.919a1.009,1.009,0,0,0,.4-.676h.107a1.154,1.154,0,0,1-.426.737,1.4,1.4,0,0,1-.9.281,1.446,1.446,0,0,1-.718-.177,1.242,1.242,0,0,1-.5-.515,1.842,1.842,0,0,1,0-1.587,1.244,1.244,0,0,1,.5-.515,1.449,1.449,0,0,1,.718-.177,1.388,1.388,0,0,1,.724.179,1.2,1.2,0,0,1,.453.464,1.248,1.248,0,0,1,.153.6c0,.129,0,.225-.005.289h-2.61a1.459,1.459,0,0,0,.185.745,1.15,1.15,0,0,0,.469.448,1.372,1.372,0,0,0,.632.147,1.338,1.338,0,0,0,.82-.246m-1.453-2.383a1.15,1.15,0,0,0-.469.448,1.459,1.459,0,0,0-.185.745h2.519a1.333,1.333,0,0,0-.142-.745,1.08,1.08,0,0,0-.461-.448,1.425,1.425,0,0,0-1.262,0" transform="translate(-188.883 -80.961)" fill="#fff" stroke="#fff" stroke-width="0.2"/>
    <path id="Path_458" data-name="Path 458" d="M297.364,116.143h1.447v.1h-1.554v-3.773h.107Z" transform="translate(-208.741 -78.976)" fill="#fff" stroke="#fff" stroke-width="0.2"/>
    <path id="Path_459" data-name="Path 459" d="M311.782,117.919a1.011,1.011,0,0,0,.4-.676h.107a1.154,1.154,0,0,1-.426.737,1.4,1.4,0,0,1-.9.281,1.445,1.445,0,0,1-.718-.177,1.239,1.239,0,0,1-.5-.515,1.839,1.839,0,0,1,0-1.587,1.241,1.241,0,0,1,.5-.515,1.448,1.448,0,0,1,.718-.177,1.389,1.389,0,0,1,.724.179,1.2,1.2,0,0,1,.453.464,1.246,1.246,0,0,1,.153.6c0,.129,0,.225-.006.289h-2.61a1.459,1.459,0,0,0,.185.745,1.149,1.149,0,0,0,.469.448,1.371,1.371,0,0,0,.632.147,1.338,1.338,0,0,0,.82-.246m-1.453-2.383a1.149,1.149,0,0,0-.469.448,1.459,1.459,0,0,0-.185.745h2.519a1.336,1.336,0,0,0-.142-.745,1.078,1.078,0,0,0-.461-.448,1.424,1.424,0,0,0-1.262,0" transform="translate(-217.386 -80.961)" fill="#fff" stroke="#fff" stroke-width="0.2"/>
    <path id="Path_460" data-name="Path 460" d="M326.7,115.986a1.237,1.237,0,0,1,.5-.515,1.48,1.48,0,0,1,.734-.18,1.365,1.365,0,0,1,.844.26,1.251,1.251,0,0,1,.463.662v-.884h.1v2.894h-.1v-.884a1.251,1.251,0,0,1-.463.662,1.365,1.365,0,0,1-.844.26,1.476,1.476,0,0,1-.734-.18,1.237,1.237,0,0,1-.5-.515,1.855,1.855,0,0,1,0-1.581m2.372.064a1.227,1.227,0,0,0-.466-.488,1.309,1.309,0,0,0-.673-.174,1.371,1.371,0,0,0-.689.166,1.128,1.128,0,0,0-.453.48,1.794,1.794,0,0,0,0,1.485,1.128,1.128,0,0,0,.453.48,1.371,1.371,0,0,0,.689.166,1.306,1.306,0,0,0,.673-.174,1.226,1.226,0,0,0,.466-.488,1.649,1.649,0,0,0,0-1.453" transform="translate(-229.292 -80.961)" fill="#fff" stroke="#fff" stroke-width="0.2"/>
    <path id="Path_461" data-name="Path 461" d="M345.953,115.2v.118H345.9a1.17,1.17,0,0,0-.775.265,1.051,1.051,0,0,0-.319.855v1.721H344.7v-2.894h.107v.7q.172-.767,1.142-.766" transform="translate(-242.059 -80.897)" fill="#fff" stroke="#fff" stroke-width="0.2"/>
    <path id="Path_462" data-name="Path 462" d="M358.52,115.518a1.272,1.272,0,0,1,.327.954v1.688h-.1v-1.7a1.205,1.205,0,0,0-.284-.865,1.024,1.024,0,0,0-.777-.3,1.073,1.073,0,0,0-.825.335,1.405,1.405,0,0,0-.311.989v1.538h-.107v-2.894h.107v.761a1.022,1.022,0,0,1,.407-.614,1.25,1.25,0,0,1,.729-.212,1.153,1.153,0,0,1,.836.316" transform="translate(-250.3 -80.897)" fill="#fff" stroke="#fff" stroke-width="0.2"/>
    <path id="Path_463" data-name="Path 463" d="M372.9,112.211a.156.156,0,0,1,0-.209.142.142,0,0,1,.2,0,.156.156,0,0,1,0,.209.142.142,0,0,1-.2,0m.153,3.674h-.107v-2.894h.107Z" transform="translate(-261.828 -78.622)" fill="#fff" stroke="#fff" stroke-width="0.2"/>
    <path id="Path_464" data-name="Path 464" d="M384.3,115.518a1.272,1.272,0,0,1,.327.954v1.688h-.1v-1.7a1.207,1.207,0,0,0-.284-.865,1.024,1.024,0,0,0-.778-.3,1.072,1.072,0,0,0-.825.335,1.4,1.4,0,0,0-.311.989v1.538h-.107v-2.894h.107v.761a1.022,1.022,0,0,1,.407-.614,1.251,1.251,0,0,1,.729-.212,1.154,1.154,0,0,1,.836.316" transform="translate(-268.401 -80.897)" fill="#fff" stroke="#fff" stroke-width="0.2"/>
    <path id="Path_465" data-name="Path 465" d="M400.723,115.549a1.24,1.24,0,0,1,.463.654v-.874h.1v3a1.34,1.34,0,0,1-.177.7,1.185,1.185,0,0,1-.469.453,1.331,1.331,0,0,1-.635.155,1.429,1.429,0,0,1-.871-.255,1.279,1.279,0,0,1-.474-.689h.107a1.182,1.182,0,0,0,.437.619,1.328,1.328,0,0,0,.8.228,1.209,1.209,0,0,0,.6-.15,1.1,1.1,0,0,0,.423-.423,1.268,1.268,0,0,0,.155-.638v-.986a1.24,1.24,0,0,1-.463.66,1.377,1.377,0,0,1-.844.257,1.477,1.477,0,0,1-.734-.18,1.238,1.238,0,0,1-.5-.515,1.856,1.856,0,0,1,0-1.581,1.238,1.238,0,0,1,.5-.515,1.48,1.48,0,0,1,.734-.18,1.375,1.375,0,0,1,.844.257m.295.5a1.226,1.226,0,0,0-.466-.488,1.309,1.309,0,0,0-.673-.174,1.371,1.371,0,0,0-.689.166,1.128,1.128,0,0,0-.453.48,1.794,1.794,0,0,0,0,1.485,1.128,1.128,0,0,0,.453.48,1.371,1.371,0,0,0,.689.166,1.306,1.306,0,0,0,.673-.174,1.226,1.226,0,0,0,.466-.488,1.649,1.649,0,0,0,0-1.453" transform="translate(-279.814 -80.961)" fill="#fff" stroke="#fff" stroke-width="0.2"/>
  </g>
</svg>
