<svg xmlns="http://www.w3.org/2000/svg" width="96" height="96" viewBox="0 0 96 96">
  <g id="Group_19" data-name="Group 19" transform="translate(-135 -5076)">
    <circle id="Oval" cx="48" cy="48" r="48" transform="translate(135 5076)" fill="#fff"/>
    <path id="Shape" d="M29.12,48c-1.328,0-2.643-.007-4.167-.015h-.009l-2.935-.014c-1.249,0-3.443.009-5.514.009-2.471,0-5.535-.007-6.094-.041-3.746-.3-6.026-2.256-6.593-5.658C1.353,41.5,0,39.51,0,36.672A66.325,66.325,0,0,1,.964,26.56,5.4,5.4,0,0,1,2.3,23.9a5.554,5.554,0,0,1,2.65-1.474C5.913,14.962,6.588,12.012,8.688,9.25a12.754,12.754,0,0,1,7.477-4.644A5.993,5.993,0,0,1,22,0a5.993,5.993,0,0,1,5.846,4.632,12.767,12.767,0,0,1,8.112,5.62c1.5,2.4,2.109,4.794,3.106,12.178a5.082,5.082,0,0,1,3.824,3.52A58.632,58.632,0,0,1,44,36.008c.08,3.4-1.115,5.387-3.762,6.262l-.02.005A6.083,6.083,0,0,1,36.662,47.2a11.48,11.48,0,0,1-4.735.8h-.767C30.5,48,29.833,48,29.12,48Zm-7.11-4.026,3.567.016h.012C27.1,44,28.2,44,29.237,44c.869,0,1.638,0,2.5-.012,4.519-.044,4.545-.815,4.69-5.092l0-.122.478-.04.028,0c.488-.04.99-.082,1.484-.139,1.652-.233,1.625-1.064,1.57-2.719l0-.061a62.968,62.968,0,0,0-.85-8.39A1.208,1.208,0,0,0,38,26.284,17.316,17.316,0,0,0,35.89,26.1l-.4-.021-.043-.346c-.3-2.446-1.1-8.943-1.939-11.359A8.4,8.4,0,0,0,29.1,9.294,16.4,16.4,0,0,0,21.957,8a16.468,16.468,0,0,0-7.05,1.253,8.278,8.278,0,0,0-4.4,5c-.835,2.378-1.61,8.768-1.941,11.5l-.04.333c-.2.012-.4.023-.606.033H7.916c-.458.024-.931.049-1.4.091-1.35.143-1.527.492-1.689,1.453A61.981,61.981,0,0,0,4,36.79c.02,1.139.371,1.587,1.391,1.774.267.046,1.427.144,1.984.191l.216.018c.086,2.488.156,3.714.821,4.4s1.856.8,4.477.82c.441,0,1.017,0,1.71,0C17.611,44,21.966,43.974,22.01,43.974ZM21.985,4a28.8,28.8,0,0,1,3.6.214,4.006,4.006,0,0,0-7.16-.01A29.763,29.763,0,0,1,21.985,4ZM21.869,42c-2.055,0-4.1-.01-6.076-.03-3.648-.118-5.7-2.2-5.792-5.856V27.982H34v8A6.2,6.2,0,0,1,32.6,40.372a5.952,5.952,0,0,1-4.369,1.6C26.065,41.994,23.926,42,21.869,42ZM12,29.982c0,.683-.005,1.375-.01,2.045-.01,1.366-.02,2.778.012,4.167a3.9,3.9,0,0,0,1.046,2.849,4.111,4.111,0,0,0,2.785.931c1.963.02,4,.03,6.039.03s4.168-.01,6.312-.03a4.06,4.06,0,0,0,2.936-.956A4.3,4.3,0,0,0,32,35.972v-5.99H24v6a2,2,0,1,1-4,0v-6Zm18.481-5a.991.991,0,0,1-.991-.864q-.049-.5-.094-.975c-.275-2.875-.493-5.144-1.339-6.795-.915-1.786-2.48-2.638-5.077-2.764l1.352,4.67a2.389,2.389,0,1,1-4.674.05L20.9,13.59c-1.982.152-3.422.538-4.476,1.993-1.1,1.514-1.7,4.111-1.95,8.422a1,1,0,0,1-1,.941.985.985,0,0,1-.995-.979,32.274,32.274,0,0,1,.7-5.608,10.852,10.852,0,0,1,1.68-4.009,6.247,6.247,0,0,1,3.406-2.361,14.3,14.3,0,0,1,3.75-.428,14.263,14.263,0,0,1,3.748.428,6.2,6.2,0,0,1,3.314,2.245,10.246,10.246,0,0,1,1.677,3.829,31.587,31.587,0,0,1,.732,6.032A.986.986,0,0,1,30.484,24.98ZM22,17.578a1.2,1.2,0,1,0,1.2,1.194A1.2,1.2,0,0,0,22,17.578Z" transform="translate(161 5100)" fill="#6b5cf6"/>
  </g>
</svg>
