<svg xmlns="http://www.w3.org/2000/svg" width="96" height="96" viewBox="0 0 96 96">
  <g id="Group_18" data-name="Group 18" transform="translate(-135 -5222)">
    <circle id="Oval" cx="48" cy="48" r="48" transform="translate(135 5222)" fill="#fff"/>
    <path id="Shape" d="M20.378,48H0V0H40V28.772c0,1.14-.753,2.877-2.176,5.022a45.791,45.791,0,0,1-5.262,6.385,42.047,42.047,0,0,1-6.448,5.489C23.832,47.193,21.849,48,20.378,48ZM4,4V44H18.724a5.193,5.193,0,0,0,4.346-1.894c1.36-1.747,1.54-4.4,1.453-6.321A21.354,21.354,0,0,0,24,32a21.325,21.325,0,0,0,5.023.655,8.98,8.98,0,0,0,4.721-1.077A4.9,4.9,0,0,0,36,27.086V4ZM20,38H10V36H20v2Zm0-4H10V32H20v2Zm10-4H10V28H30v2Zm0-4H10V24H30v2ZM10,20h0L14.226,8.622l2.172,0,4.266,11.372-2.492,0-.79-2.343-4.109,0L12.492,20Zm5.313-8.5L13.9,15.756l2.844,0Zm8.671,7.354h0l0-3.187-2.829,0,0-2.038,2.828,0,0-3.056h2.148l0,3.055,2.82,0,0,2.038-2.821,0,0,3.188Z" transform="translate(163 5246)" fill="#50c4ee"/>
  </g>
</svg>
