<svg id="Group_162325" data-name="Group 162325" xmlns="http://www.w3.org/2000/svg" xmlns:xlink="http://www.w3.org/1999/xlink" width="22.754" height="22.744" viewBox="0 0 22.754 22.744">
  <defs>
    <clipPath id="clip-path">
      <rect id="Rectangle_1965" data-name="Rectangle 1965" width="22.754" height="22.744" fill="#009ce4"/>
    </clipPath>
  </defs>
  <g id="Group_162325-2" data-name="Group 162325" clip-path="url(#clip-path)">
    <path id="Path_2506" data-name="Path 2506" d="M0,11.362A11.377,11.377,0,1,1,11.264,22.744,11.394,11.394,0,0,1,0,11.362M10.349,8.281h0c0,1.009,0,2.019,0,3.029a1.034,1.034,0,0,0,.282.774q1.573,1.58,3.153,3.151a.957.957,0,0,0,.989.231,1.029,1.029,0,0,0,.41-1.748q-1.268-1.285-2.554-2.551a.666.666,0,0,1-.223-.525q.014-2.665,0-5.33a1.549,1.549,0,0,0-.114-.608,1.022,1.022,0,0,0-1.935.427c-.01,1.05,0,2.1,0,3.15" transform="translate(0 0)" fill="#009ce4"/>
  </g>
</svg>
