<svg id="Group_162324" data-name="Group 162324" xmlns="http://www.w3.org/2000/svg" xmlns:xlink="http://www.w3.org/1999/xlink" width="23.046" height="23" viewBox="0 0 23.046 23">
  <defs>
    <clipPath id="clip-path">
      <rect id="Rectangle_1964" data-name="Rectangle 1964" width="23.046" height="23" fill="#009ce4"/>
    </clipPath>
  </defs>
  <g id="Group_162324-2" data-name="Group 162324" clip-path="url(#clip-path)">
    <path id="Path_2501" data-name="Path 2501" d="M308.706,15.191c-.034.12-.066.241-.1.361a2.393,2.393,0,0,1-4.671-.416,4.588,4.588,0,0,1-.024-.493q0-6,0-11.992A2.411,2.411,0,0,1,305.971.023.148.148,0,0,0,306.009,0h.629c.048.016.094.035.143.047a2.378,2.378,0,0,1,1.807,1.62c.046.131.079.267.117.4Z" transform="translate(-285.66)" fill="#009ce4"/>
    <path id="Path_2502" data-name="Path 2502" d="M23.591,290.705a3.29,3.29,0,0,1-.284.445.98.98,0,0,1-.8.287q-3.392-.006-6.785,0c-.262,0-.524.005-.786,0a.2.2,0,0,0-.214.144,2.74,2.74,0,0,1-2.652,1.768,2.733,2.733,0,0,1-2.63-1.766c-.068-.152-.162-.145-.281-.145H1.639a.956.956,0,1,1-.179-1.9c.1-.006.195,0,.292,0q3.7,0,7.391,0a.3.3,0,0,0,.331-.21,2.726,2.726,0,0,1,2.6-1.7,2.721,2.721,0,0,1,2.612,1.688.335.335,0,0,0,.365.227c2.434-.007,4.868.008,7.3-.013a1.145,1.145,0,0,1,1.236.739v.449m-10.553-.223a.953.953,0,1,0-.954.952.943.943,0,0,0,.954-.952" transform="translate(-0.545 -270.345)" fill="#009ce4"/>
    <path id="Path_2503" data-name="Path 2503" d="M207.61,70.568c0,1.43.009,2.86,0,4.29a2.4,2.4,0,1,1-4.795-.091q-.005-4.212,0-8.423a3.613,3.613,0,0,1,.029-.425,2.389,2.389,0,0,1,4.726-.087,3.62,3.62,0,0,1,.04.536q0,2.1,0,4.2" transform="translate(-190.633 -60.004)" fill="#009ce4"/>
    <path id="Path_2504" data-name="Path 2504" d="M101.579,132.585c0-.809-.009-1.618,0-2.427a2.394,2.394,0,0,1,4.356-1.33,2.435,2.435,0,0,1,.439,1.437c0,1.558.008,3.116,0,4.674a2.4,2.4,0,0,1-4.791.118c-.017-.824,0-1.648,0-2.472" transform="translate(-95.475 -120.134)" fill="#009ce4"/>
    <path id="Path_2505" data-name="Path 2505" d="M0,194.494a8.471,8.471,0,0,1,.125-1.087,2.372,2.372,0,0,1,2.486-1.779A2.351,2.351,0,0,1,4.8,193.759a6.751,6.751,0,0,1-.055,1.764,2.34,2.34,0,0,1-2.538,1.842,2.406,2.406,0,0,1-2.17-2.352c0-.172,0-.344,0-.517l-.035,0" transform="translate(0 -180.116)" fill="#009ce4"/>
  </g>
</svg>
