<svg xmlns="http://www.w3.org/2000/svg" width="96" height="96" viewBox="0 0 96 96">
  <g id="Group_162314" data-name="Group 162314" transform="translate(-227 -960)">
    <path id="Oval" d="M48,0A48,48,0,1,1,0,48,48,48,0,0,1,48,0Z" transform="translate(227 960)" fill="#00aaef" opacity="0.083"/>
    <path id="Shape" d="M48,48H36V46a4,4,0,0,1,4-4h4a4,4,0,0,1,4,4v2ZM32,48H20V46a4,4,0,0,1,4-4h4a4,4,0,0,1,4,4v2ZM14.328,44h0a1.7,1.7,0,0,1-1.672-1.576C12.516,41.2,12.3,38.969,12.1,37v-.006c-.116-1.176-.225-2.287-.3-2.991a1.222,1.222,0,0,0-1.17-1.23c-.626,0-1.047.467-1.1,1.218-.076,1.158-.266,3.429-.434,5.432-.1,1.175-.191,2.284-.247,3.008A1.7,1.7,0,0,1,7.172,44a1.681,1.681,0,0,1-1.686-1.616c-.176-4.243-.643-15.622-.735-17.86l0-.068-2.574,4.66a1.159,1.159,0,0,1-2.13-.876l2.488-8.786A2.008,2.008,0,0,1,4.456,18h9.062a7.357,7.357,0,0,0,3.384-.872c1.062-.591,3.289-1.971,5.078-3.08.765-.474,1.424-.883,1.892-1.168a1.011,1.011,0,0,1,1.309.226l.016.023a1,1,0,0,1-.086,1.36c-.723.694-2.271,2.168-3.768,3.594-1.1,1.048-2.194,2.089-2.972,2.832a5.561,5.561,0,0,0-1.705,3.808c-.153,3.538-.4,10.313-.559,14.8-.04,1.121-.076,2.106-.1,2.87A1.67,1.67,0,0,1,14.328,44ZM42,41a4.5,4.5,0,1,1,4.5-4.5A4.505,4.505,0,0,1,42,41ZM26,41a4.5,4.5,0,1,1,4.5-4.5A4.505,4.505,0,0,1,26,41ZM48,30H20V26H34V24h6v2h4V4H4v8.712l-4,4V0H48V30ZM34,20H28V18h6v2ZM10.748,17a4.5,4.5,0,1,1,4.5-4.5A4.505,4.505,0,0,1,10.748,17ZM40,16H28V14H40v2Zm0-4H28V10H40v2Z" transform="translate(251 984)" fill="#00aaef"/>
  </g>
</svg>
