<svg xmlns="http://www.w3.org/2000/svg" width="23.792" height="18.505" viewBox="0 0 23.792 18.505">
  <path id="Icon_awesome-book-open" data-name="Icon awesome-book-open" d="M22.4.877c-2.264.128-6.763.6-9.54,2.3a.635.635,0,0,0-.3.544v15.03a.654.654,0,0,0,.962.557c2.858-1.438,6.99-1.831,9.034-1.938a1.288,1.288,0,0,0,1.24-1.266V2.145A1.3,1.3,0,0,0,22.4.877Zm-11.462,2.3C8.158,1.473,3.659,1.006,1.4.877A1.3,1.3,0,0,0,0,2.145V16.1a1.288,1.288,0,0,0,1.24,1.266c2.044.107,6.179.5,9.037,1.939a.652.652,0,0,0,.959-.556V3.71A.622.622,0,0,0,10.935,3.173Z" transform="translate(0 -0.875)" fill="#343434"/>
</svg>
