<svg xmlns="http://www.w3.org/2000/svg" xmlns:xlink="http://www.w3.org/1999/xlink" width="683" height="896" viewBox="0 0 683 896">
  <defs>
    <clipPath id="clip-path">
      <rect id="Rectangle_208" data-name="Rectangle 208" width="683" height="896" transform="translate(0)" fill="#f5fcff"/>
    </clipPath>
    <filter id="Path_2367" x="-686.644" y="-246.982" width="1443.071" height="1162.583" filterUnits="userSpaceOnUse">
      <feOffset dy="3" input="SourceAlpha"/>
      <feGaussianBlur stdDeviation="7" result="blur"/>
      <feFlood flood-opacity="0.008"/>
      <feComposite operator="in" in2="blur"/>
      <feComposite in="SourceGraphic"/>
    </filter>
    <clipPath id="clip-path-2">
      <rect id="Rectangle_208-2" data-name="Rectangle 208" width="683" height="896" transform="translate(0 0)" fill="#f5fcff"/>
    </clipPath>
  </defs>
  <g id="Sign_In_Vec" data-name="Sign In Vec" transform="translate(0.001 -1)">
    <g id="Working_remotely" data-name="Working remotely" transform="translate(5.703 476.465)">
      <g id="Side_BG" data-name="Side BG" transform="translate(-5.404 -475.681)">
        <rect id="Rectangle_208-3" data-name="Rectangle 208" width="683" height="896" transform="translate(-0.299 0.216)" fill="#ebf8fe"/>
        <g id="Mask_Group_24" data-name="Mask Group 24" transform="translate(-0.299 0.216)" clip-path="url(#clip-path)">
          <g transform="matrix(1, 0, 0, 1, 0, 0)" filter="url(#Path_2367)">
            <path id="Path_2367-2" data-name="Path 2367" d="M298.222,23.214c164.7,12.82,308.615,172.972,321.436,357.709L659.693,957.8c12.82,184.737-110.305,324.1-275.009,311.281S76.069,1096.113,63.248,911.376L23.214,334.5C10.393,149.759,133.519,10.393,298.222,23.214Z" transform="matrix(0.44, -0.9, 0.9, 0.44, -695.55, 354.95)" fill="#fff"/>
          </g>
        </g>
      </g>
      <g id="Mask_Group_23" data-name="Mask Group 23" transform="translate(-5.703 -475.465)" clip-path="url(#clip-path-2)">
        <path id="Path_1646" data-name="Path 1646" d="M2683.863,2701.957s-81.095-42.4-214.218-35.211c-225.535,12.173-358.107,18.153-358.107,18.153s-65.231,6.157-95.941,20.9v36.487c26.58,21.693,62.277,20.44,171.927,6.812,126.106-15.674,109.939,6.809,104.281,16.348s-28.294,31.34,51.736,26.571,59.011-19.61,32.335-32.628,15.358-14.381,49.311-14.381,187.325.843,256.763-4.179S2683.863,2701.957,2683.863,2701.957Z" transform="translate(-2030.315 -1820.446)" fill="#c6ddff"/>
      </g>
      <g id="Sign_IN" data-name="Sign IN" transform="translate(46.557 -260.434)">
        <path id="Line" d="M4.977,0H577.945a4.977,4.977,0,0,1,4.977,4.977v6.334a4.977,4.977,0,0,1-4.977,4.977H4.977A4.977,4.977,0,0,1,0,11.312V4.977A4.977,4.977,0,0,1,4.977,0Z" transform="translate(0 663.918)" fill="#6caf27"/>
        <g id="plant" transform="translate(8.928 438.195)">
          <path id="Path_1647" data-name="Path 1647" d="M2204.69,2727.453h-41.835a3.354,3.354,0,0,1-3.167-3.089l-9.4-71.958h66.96l-9.4,71.958A3.353,3.353,0,0,1,2204.69,2727.453Z" transform="translate(-2093.26 -2497.713)" fill="#81cb34"/>
          <path id="Path_1648" data-name="Path 1648" d="M2173.191,2614.2h20.143s9.963-18.649.614-18.087c-9.312.56,4.169-28.394-2.912-27.04-7.017,1.341,10.9-52.006-5.567-48.358-16.137,3.575-4.117-50.522-18.259-45.866-13.821,4.551-2.259,35.842-12.358,42.311-9.749,6.243,12.74,30.272,8.357,36.336-4.224,5.844,19.042,35.137,8.934,36.314C2162.12,2590.978,2164.523,2607.41,2173.191,2614.2Z" transform="translate(-2093.604 -2468.429)" fill="#bce097"/>
          <g id="Group_773" data-name="Group 773" transform="translate(73.446 14.611)">
            <path id="Path_1649" data-name="Path 1649" d="M2187.423,2613.7a.546.546,0,0,1-.512-.433,498.65,498.65,0,0,1-11.4-61.517c-2.534-20.024-4.408-42.364-5.571-66.4a.579.579,0,0,1,.5-.634.546.546,0,0,1,.562.568c1.161,24,3.033,46.305,5.562,66.295a497.26,497.26,0,0,0,11.365,61.35.618.618,0,0,1-.362.747A.469.469,0,0,1,2187.423,2613.7Z" transform="translate(-2169.942 -2484.711)" fill="#fff"/>
          </g>
          <path id="Path_1650" data-name="Path 1650" d="M2211.531,2610.216s26.752-21.307,23.032-26.275c-3.843-5.134,13.936-13.507,11.953-25.823-2.14-13.3,21.518-29.6,16.227-37.48-5.526-8.234,26.878-41.575,17.665-50.843-9.636-9.695-26.862,9.269-39.629,35.287-11.255,22.937-23.962,9.228-16.9,34.865,6.167,22.38-16.363,20.2-13.24,36.892,2.824,15.1-17.146,13.341-15.514,32.341C2201.01,2609.179,2211.531,2610.216,2211.531,2610.216Z" transform="translate(-2100.627 -2467.219)" fill="#bce097"/>
          <g id="Group_774" data-name="Group 774" transform="translate(102.746 21.784)">
            <path id="Path_1651" data-name="Path 1651" d="M2205.552,2615.113a.493.493,0,0,1-.324-.124.657.657,0,0,1-.1-.845c23.7-34.917,59.356-119.65,59.713-120.5a.51.51,0,0,1,.71-.287.64.64,0,0,1,.254.8c-.357.852-36.059,85.7-59.83,120.718A.511.511,0,0,1,2205.552,2615.113Z" transform="translate(-2205.018 -2493.298)" fill="#fff"/>
          </g>
          <path id="Path_1652" data-name="Path 1652" d="M2150.111,2610.216s-25.433-21.307-22-26.275c3.548-5.134-13.28-13.507-11.576-25.823,1.841-13.3-20.619-29.6-15.745-37.48,5.091-8.234-25.814-41.575-17.271-50.843,8.936-9.695,25.382,9.269,37.726,35.287,10.882,22.937,22.654,9.228,16.344,34.865-5.51,22.38,15.65,20.2,12.929,36.892-2.46,15.1,16.3,13.341,15.008,32.341C2159.992,2609.179,2150.111,2610.216,2150.111,2610.216Z" transform="translate(-2082.018 -2467.219)" fill="#bce097"/>
          <g id="Group_775" data-name="Group 775" transform="translate(16.958 21.783)">
            <path id="Path_1653" data-name="Path 1653" d="M2160.625,2615.113a.514.514,0,0,1-.43-.245c-22.807-35.017-57.479-119.863-57.826-120.716a.636.636,0,0,1,.261-.8.508.508,0,0,1,.707.3c.348.852,34.975,85.587,57.718,120.506a.656.656,0,0,1-.114.843A.5.5,0,0,1,2160.625,2615.113Z" transform="translate(-2102.319 -2493.297)" fill="#fff"/>
          </g>
          <path id="Path_2345" data-name="Path 2345" d="M6.436,0H70.928a6.436,6.436,0,0,1,6.436,6.436V15.57a6.436,6.436,0,0,1-6.436,6.436H6.436A6.436,6.436,0,0,1,0,15.57V6.436A6.436,6.436,0,0,1,6.436,0Z" transform="translate(51.199 138.564)" fill="#a2e35d"/>
        </g>
        <g id="cat" transform="translate(441.611 572.612)">
          <path id="Path_1654" data-name="Path 1654" d="M2642.486,2660.029s20.35,3.529,28.7,18.233,7.528,45.994,6.234,46.229-54.679,1.646-54.679,1.646S2611.313,2661.323,2642.486,2660.029Z" transform="translate(-2603.406 -2633.385)" fill="#fdbd28"/>
          <path id="Path_1655" data-name="Path 1655" d="M2623.116,2680.3s13.979,5.539,27.169-9.526c2.382-2.47,7.638-3.645,7.767-5.209.022.014-12.743-7.383-14.424-5.42S2620.96,2676.087,2623.116,2680.3Z" transform="translate(-2603.778 -2633.35)" fill="#f97700"/>
          <path id="Path_1656" data-name="Path 1656" d="M2617.068,2641.013s1.941-11.822,7.058-12.881c.882.353,4.94,6.529,5.469,10.587C2630.3,2639.072,2619.185,2644.543,2617.068,2641.013Z" transform="translate(-2602.808 -2628.133)" fill="#fdbd28"/>
          <path id="Path_1657" data-name="Path 1657" d="M2617.068,2641.661s1.106-8.368,3.258-9.6c-.084.138,2.95,5.9,3.021,10.219C2623.33,2642.29,2618.479,2644.131,2617.068,2641.661Z" transform="translate(-2602.808 -2628.78)" fill="#f97700"/>
          <path id="Path_1658" data-name="Path 1658" d="M2650.938,2668.877s11.746-2.356,12.625-7.506c-.384-.869-6.7-4.708-10.773-5.095C2652.414,2655.582,2647.337,2666.885,2650.938,2668.877Z" transform="translate(-2608.174 -2632.762)" fill="#fdbd28"/>
          <path id="Path_1659" data-name="Path 1659" d="M2650.918,2670.133s8.325-1.4,9.475-3.594c-.135.088-6-2.74-10.32-2.66C2650.069,2663.9,2648.4,2668.809,2650.918,2670.133Z" transform="translate(-2608.153 -2634.019)" fill="#f97700"/>
          <path id="Path_1660" data-name="Path 1660" d="M2682.4,2712.269s15.292-5.882,13.293-26-15.645-17.292-14.235-34.467,13.293-7.293,13.763-.588a38.2,38.2,0,0,0,6.823,18.586c3.529,4.94,10,31.172,0,40.347s-20.115,11.881-21.762,10.7S2675.341,2715.093,2682.4,2712.269Z" transform="translate(-2612.851 -2630.456)" fill="#fdbd28"/>
          <path id="Path_1661" data-name="Path 1661" d="M2641.149,2688.416s5.293,33.531,5.058,36.942,9.763,1.53,9.763,0,1.219-32.7-2.39-38.7S2641.384,2683.116,2641.149,2688.416Z" transform="translate(-2606.773 -2637.193)" fill="#fdbd28"/>
          <path id="Path_1662" data-name="Path 1662" d="M2649.344,2736.5a3.51,3.51,0,0,1-3.257-2.414c-.567-1.918-.423-3.617,3.836-4.111,7.315-.85,7.151,3.047,7.306,4.82C2657.369,2736.4,2656.045,2736.8,2649.344,2736.5Z" transform="translate(-2607.547 -2644.882)" fill="#f97700"/>
          <path id="Path_1663" data-name="Path 1663" d="M2658.589,2725.869a.5.5,0,0,1-.128.306,9.371,9.371,0,0,1,.326,2.188,1.191,1.191,0,0,1-.664,1.326c.348,0,.7-.015,1.046-.012a4.942,4.942,0,0,1,.957.023c0-.03,0-.286,0,0,0,.584-.069-1.392-.326-2.188a.5.5,0,0,0,.128-.306c0-1.53,1.22-32.7-2.39-38.7a7.419,7.419,0,0,0-1.87-2.108,7.877,7.877,0,0,1,.533.771C2659.808,2693.167,2658.589,2724.339,2658.589,2725.869Z" transform="translate(-2609.164 -2637.727)" fill="#f97700"/>
          <path id="Path_1664" data-name="Path 1664" d="M2617.524,2729.169c2.784-.376,5.363.542,8.218.418a3.868,3.868,0,0,1,.933.073,1.337,1.337,0,0,0,.178-.891c-.033-.365-.054-.821-.13-1.306,1.131-4.121,1.79-43.889.984-43.889a9.675,9.675,0,0,1-1.859-.926c.469,6.5-.166,39.05-1.184,42.756.077.485.1.941.131,1.306.148,1.607-1.241,2.01-8.272,1.705a4.135,4.135,0,0,1-1.332-.289C2615.512,2729.08,2616.519,2728.791,2617.524,2729.169Z" transform="translate(-2602.499 -2637.109)" fill="#f97700"/>
          <path id="Path_1665" data-name="Path 1665" d="M2649.344,2737.395a3.511,3.511,0,0,1-3.257-2.415c-.567-1.918-.423-3.617,3.836-4.112,7.315-.849,7.151,3.047,7.306,4.821C2657.369,2737.3,2656.045,2737.7,2649.344,2737.395Z" transform="translate(-2607.547 -2645.03)" fill="#ffc145"/>
          <path id="Path_1666" data-name="Path 1666" d="M2614.269,2680.281s1.632,46.477,3.044,46.806,6.941,1.505,8.117-1.083,1.882-44.112,1.058-44.112S2617.106,2675.492,2614.269,2680.281Z" transform="translate(-2602.347 -2636.427)" fill="#fdbd28"/>
          <path id="Path_1667" data-name="Path 1667" d="M2616.822,2729.911a12.23,12.23,0,0,1,1.568-.282c7.675-.923,7.5,3.313,7.665,5.241.147,1.749-1.242,2.187-8.273,1.855" transform="translate(-2602.767 -2644.824)" fill="#f97700"/>
          <path id="Path_1668" data-name="Path 1668" d="M2617.248,2737.976a3.706,3.706,0,0,1-3.417-2.626c-.595-2.085-.443-3.934,4.026-4.47,7.675-.923,7.5,3.313,7.665,5.241C2625.668,2737.869,2624.279,2738.307,2617.248,2737.976Z" transform="translate(-2602.234 -2645.031)" fill="#ffc145"/>
          <ellipse id="Ellipse_209" data-name="Ellipse 209" cx="20.997" cy="19.321" rx="20.997" ry="19.321" transform="translate(3.144 8.823)" fill="#fdbd28"/>
          <circle id="Ellipse_210" data-name="Ellipse 210" cx="1.706" cy="1.706" r="1.706" transform="translate(16.495 21.821)" fill="#f97700"/>
          <circle id="Ellipse_211" data-name="Ellipse 211" cx="1.706" cy="1.706" r="1.706" transform="translate(26.756 32.081)" fill="#f97700"/>
          <path id="Path_1669" data-name="Path 1669" d="M2620.836,2667.858s-.14-3.952.665-3.693,3.916,3.063,3.051,3.693S2620.836,2667.858,2620.836,2667.858Z" transform="translate(-2603.427 -2634.064)" fill="#f97700"/>
          <g id="Group_776" data-name="Group 776" transform="translate(0 15.107)">
            <path id="Path_1670" data-name="Path 1670" d="M2610.748,2659.473a.354.354,0,0,1-.292-.155l-6.529-9.617a.353.353,0,1,1,.584-.4l6.529,9.617a.353.353,0,0,1-.094.491A.357.357,0,0,1,2610.748,2659.473Z" transform="translate(-2600.634 -2646.701)" fill="#f97700"/>
            <path id="Path_1671" data-name="Path 1671" d="M2612.3,2658.122a.354.354,0,0,1-.341-.258l-3.115-11.2a.353.353,0,0,1,.68-.188l3.115,11.2a.352.352,0,0,1-.245.434A.327.327,0,0,1,2612.3,2658.122Z" transform="translate(-2601.451 -2646.218)" fill="#f97700"/>
            <path id="Path_1672" data-name="Path 1672" d="M2609.288,2660.465a.349.349,0,0,1-.227-.083l-8.938-7.43a.354.354,0,1,1,.452-.544l8.938,7.431a.354.354,0,0,1-.225.625Z" transform="translate(-2599.997 -2647.224)" fill="#f97700"/>
          </g>
          <g id="Group_777" data-name="Group 777" transform="translate(24.55 39.876)">
            <path id="Path_1673" data-name="Path 1673" d="M2638.67,2685.487a.354.354,0,0,1-.251-.1l-8.193-8.244a.353.353,0,0,1,.5-.5l8.193,8.245a.353.353,0,0,1-.25.6Z" transform="translate(-2629.508 -2675.979)" fill="#f97700"/>
            <path id="Path_1674" data-name="Path 1674" d="M2642.062,2681.772a.354.354,0,0,1-.157-.038l-10.4-5.2a.353.353,0,0,1,.315-.632l10.4,5.2a.353.353,0,0,1-.158.669Z" transform="translate(-2629.703 -2675.87)" fill="#f97700"/>
            <path id="Path_1675" data-name="Path 1675" d="M2635.325,2688.3a.353.353,0,0,1-.309-.184l-5.586-10.192a.352.352,0,0,1,.618-.339l5.588,10.192a.354.354,0,0,1-.31.523Z" transform="translate(-2629.386 -2676.121)" fill="#f97700"/>
          </g>
        </g>
        <g id="cup" transform="translate(410.264 416.17)">
          <path id="Path_1676" data-name="Path 1676" d="M2603.725,2527.723a5.474,5.474,0,0,1-.927-.079c-3.5-.6-5.937-4.464-5.937-9.4,0-6.231,3.874-13.174,9.434-13.174a6.2,6.2,0,0,1,5.344,3.09c1.891,3.006,2.109,7.715.555,12h0C2610.544,2524.7,2607.092,2527.723,2603.725,2527.723Zm2.57-19.481c-3.662,0-6.5,5.375-6.5,10,0,3.288,1.456,5.925,3.463,6.268,1.919.325,4.75-1.494,6.211-5.518h0c1.191-3.281,1.091-6.917-.25-9.048A3.312,3.312,0,0,0,2606.3,2508.242Z" transform="translate(-2568.133 -2450.867)" fill="#81cb34"/>
          <path id="Path_1677" data-name="Path 1677" d="M2595.153,2502.558c-.181-.767-7.435-1.377-16.134-1.376s-15.954.609-16.135,1.376c-.251.082-1.208,6.906,1.071,13.731,1.773,6.826,6.783,13.65,6.8,13.732.638.767,4.353,1.376,8.267,1.376s7.627-.609,8.266-1.376c.015-.082,5.024-6.907,6.8-13.732C2596.361,2509.464,2595.405,2502.639,2595.153,2502.558Z" transform="translate(-2562.469 -2450.228)" fill="#81cb34"/>
          <path id="Path_1678" data-name="Path 1678" d="M2562.472,2507.315a12.814,12.814,0,0,0,.146,2.184c2.176.853,9.119,1.5,16.4,1.5s14.225-.643,16.4-1.5a12.758,12.758,0,0,0,.145-2.184c-1.994.883-9.091,1.557-16.545,1.557S2564.466,2508.2,2562.472,2507.315Z" transform="translate(-2562.469 -2451.237)" fill="#fff"/>
          <path id="Path_1679" data-name="Path 1679" d="M2595.234,2502.556c.172.788-7.081,1.438-16.135,1.438s-16.307-.65-16.135-1.437,7.435-1.414,16.135-1.413S2595.053,2501.769,2595.234,2502.556Z" transform="translate(-2562.551 -2450.221)" fill="#5aa50d"/>
          <g id="Group_778" data-name="Group 778" transform="translate(28.532 56.368)">
            <path id="Path_1680" data-name="Path 1680" d="M2601.191,2507.662a21.259,21.259,0,0,1-.044,2.829c-.029.423-.08.881-.133,1.366s-.119.994-.221,1.515l-.141.8-.172.811c-.107.548-.26,1.094-.395,1.645s-.324,1.087-.482,1.622-.363,1.046-.536,1.548-.389.969-.571,1.421-.386.865-.564,1.25-.336.741-.508,1.041l-.427.784-.372.683.337-.7c.106-.222.237-.493.385-.8s.291-.673.466-1.057.363-.8.526-1.261.363-.927.538-1.426.354-1.014.519-1.545.328-1.069.464-1.616.3-1.087.407-1.631c.061-.271.12-.54.179-.806l.148-.791c.193-1.039.334-2.017.423-2.858.042-.421.082-.807.106-1.15s.04-.643.054-.89C2601.2,2507.945,2601.191,2507.662,2601.191,2507.662Z" transform="translate(-2596.625 -2507.662)" fill="#4d9107"/>
          </g>
          <path id="Path_1681" data-name="Path 1681" d="M2574.124,2487.652s-10.233-13.842,1.252-21.778c8.771-5.43-8.93-9.573,0-25.687,0-.208-5.451,6.683,4.87,15.375,7.479,6.3,3.109,12.111-3.2,18.666S2574.124,2487.652,2574.124,2487.652Z" transform="translate(-2563.697 -2440.183)" fill="#81cb34"/>
          <path id="Path_1682" data-name="Path 1682" d="M2592.22,2493.9s-6.859-10.816-.414-17.246c4-4.385,1.694-12.067,1.369-13.286s6.271,12.167.521,18.285A9.738,9.738,0,0,0,2592.22,2493.9Z" transform="translate(-2566.845 -2443.988)" fill="#81cb34"/>
        </g>
        <g id="element_2" data-name="element 2" transform="translate(20.328 0)">
          <g id="Group_789" data-name="Group 789" transform="translate(152.951 0)">
            <g id="Group_779" data-name="Group 779" transform="translate(6.359 50.861)">
              <path id="Path_1687" data-name="Path 1687" d="M9.266,18.532a9.266,9.266,0,1,1,9.266-9.267A9.277,9.277,0,0,1,9.266,18.532Zm0-15.626a6.359,6.359,0,1,0,6.358,6.358A6.367,6.367,0,0,0,9.266,2.906Z" fill="#ef4923"/>
            </g>
            <g id="Group_780" data-name="Group 780" transform="translate(0 0)">
              <path id="Path_1688" data-name="Path 1688" d="M9.265,18.531a9.266,9.266,0,1,1,9.267-9.266A9.276,9.276,0,0,1,9.265,18.531Z" fill="#f3c04c"/>
            </g>
            <g id="Group_788" data-name="Group 788" transform="translate(42.165 11.172)">
              <g id="Group_783" data-name="Group 783" transform="translate(8.997 0)">
                <g id="Group_781" data-name="Group 781">
                  <path id="Path_1689" data-name="Path 1689" d="M1.453,9.316A1.454,1.454,0,0,1,0,7.863V1.453a1.454,1.454,0,0,1,2.907,0V7.863A1.454,1.454,0,0,1,1.453,9.316Z" fill="#f3c04c"/>
                </g>
                <g id="Group_782" data-name="Group 782" transform="translate(0 11.216)">
                  <path id="Path_1690" data-name="Path 1690" d="M1.453,9.317A1.454,1.454,0,0,1,0,7.863V1.454a1.454,1.454,0,1,1,2.907,0V7.863A1.454,1.454,0,0,1,1.453,9.317Z" fill="#f3c04c"/>
                </g>
              </g>
              <g id="Group_787" data-name="Group 787" transform="translate(0 8.813)">
                <g id="Group_785" data-name="Group 785" transform="translate(12.236 0)">
                  <g id="Group_784" data-name="Group 784">
                    <path id="Path_1691" data-name="Path 1691" d="M7.212,2.907H1.454A1.454,1.454,0,1,1,1.454,0H7.212a1.454,1.454,0,0,1,0,2.907Z" fill="#f3c04c"/>
                  </g>
                </g>
                <g id="Group_786" data-name="Group 786">
                  <path id="Path_1692" data-name="Path 1692" d="M7.212,2.907H1.454A1.454,1.454,0,1,1,1.454,0H7.212a1.454,1.454,0,1,1,0,2.907Z" fill="#f3c04c"/>
                </g>
              </g>
            </g>
          </g>
          <g id="Group_800" data-name="Group 800" transform="translate(567.913 538.441) rotate(180)">
            <g id="Group_790" data-name="Group 790" transform="translate(3.834 32.147)">
              <path id="Path_1693" data-name="Path 1693" d="M5.587,11.713A5.733,5.733,0,0,1,0,5.856,5.732,5.732,0,0,1,5.587,0a5.733,5.733,0,0,1,5.586,5.856A5.733,5.733,0,0,1,5.587,11.713Z" fill="#499d75"/>
            </g>
            <g id="Group_791" data-name="Group 791">
              <path id="Path_1694" data-name="Path 1694" d="M5.587,11.713A5.733,5.733,0,0,1,0,5.857,5.733,5.733,0,0,1,5.587,0a5.733,5.733,0,0,1,5.587,5.857A5.733,5.733,0,0,1,5.587,11.713Zm0-9.875A3.934,3.934,0,0,0,1.753,5.857,3.934,3.934,0,0,0,5.587,9.876,3.935,3.935,0,0,0,9.421,5.857,3.934,3.934,0,0,0,5.587,1.837Z" fill="#c7e7ff"/>
            </g>
            <g id="Group_799" data-name="Group 799" transform="translate(25.423 7.061)">
              <g id="Group_794" data-name="Group 794" transform="translate(5.425 0)">
                <g id="Group_792" data-name="Group 792">
                  <path id="Path_1695" data-name="Path 1695" d="M.876,5.889A.9.9,0,0,1,0,4.97V.918A.9.9,0,0,1,.876,0a.9.9,0,0,1,.876.918V4.97A.9.9,0,0,1,.876,5.889Z" fill="#fad1ff"/>
                </g>
                <g id="Group_793" data-name="Group 793" transform="translate(0 7.09)">
                  <path id="Path_1696" data-name="Path 1696" d="M.876,5.889A.9.9,0,0,1,0,4.97V.919A.9.9,0,0,1,.876,0a.9.9,0,0,1,.876.919V4.97A.9.9,0,0,1,.876,5.889Z" fill="#fad1ff"/>
                </g>
              </g>
              <g id="Group_798" data-name="Group 798" transform="translate(0 5.571)">
                <g id="Group_796" data-name="Group 796" transform="translate(7.378 0)">
                  <g id="Group_795" data-name="Group 795">
                    <path id="Path_1697" data-name="Path 1697" d="M4.348,1.837H.876A.9.9,0,0,1,0,.918.9.9,0,0,1,.876,0H4.348a.9.9,0,0,1,.876.918A.9.9,0,0,1,4.348,1.837Z" fill="#fad1ff"/>
                  </g>
                </g>
                <g id="Group_797" data-name="Group 797">
                  <path id="Path_1698" data-name="Path 1698" d="M4.347,1.837H.876A.9.9,0,0,1,0,.918.9.9,0,0,1,.876,0H4.347a.9.9,0,0,1,.876.918A.9.9,0,0,1,4.347,1.837Z" fill="#fad1ff"/>
                </g>
              </g>
            </g>
          </g>
          <path id="Path_1699" data-name="Path 1699" d="M2135.818,2496.044a8.737,8.737,0,1,1,8.438-10.988h0a8.739,8.739,0,0,1-8.438,10.987Zm0-15.8a7.065,7.065,0,1,0,6.829,5.245A7.062,7.062,0,0,0,2135.813,2480.241Z" transform="translate(-2100.839 -2117.288)" fill="#f8b91e"/>
          <path id="Path_1700" data-name="Path 1700" d="M2101.223,2597.707a5.557,5.557,0,1,1,5.557-5.557A5.564,5.564,0,0,1,2101.223,2597.707Zm0-10.278a4.721,4.721,0,1,0,4.721,4.72A4.727,4.727,0,0,0,2101.223,2587.429Z" transform="translate(-2095.666 -2135.075)" fill="#ef4923"/>
        </g>
        <g id="element" transform="translate(85.49 74.735)">
          <g id="Group_804" data-name="Group 804" transform="translate(0 95.313) rotate(-30)">
            <path id="Path_1701" data-name="Path 1701" d="M39.2,44.858a3.418,3.418,0,1,1,3.653-3.167A3.418,3.418,0,0,1,39.2,44.858ZM42,5.516A36.085,36.085,0,0,1,74.935,35.278a2.716,2.716,0,0,0,2.947,2.252h0a2.709,2.709,0,0,0,2.4-3.143,41.451,41.451,0,0,0-80.147-6.1,2.707,2.707,0,0,0,1.9,3.469h0a2.717,2.717,0,0,0,3.255-1.781A36.086,36.086,0,0,1,42,5.516Zm-.617,8.662A27.381,27.381,0,0,0,13.893,31.735a2.709,2.709,0,0,0,1.862,3.573h0a2.72,2.72,0,0,0,3.22-1.678,21.908,21.908,0,0,1,41.883,3.193,2.717,2.717,0,0,0,2.927,2.144h0a2.709,2.709,0,0,0,2.382-3.251A27.38,27.38,0,0,0,41.386,14.179Zm-.942,13.213a14.106,14.106,0,0,0-13.385,7.342,2.718,2.718,0,0,0,1.691,3.942h0A2.737,2.737,0,0,0,31.834,37.3a8.662,8.662,0,0,1,15.757,1.2,2.738,2.738,0,0,0,2.84,1.821h0A2.719,2.719,0,0,0,52.7,36.683,14.106,14.106,0,0,0,40.444,27.392Z" transform="translate(0 0)" fill="#81cb34"/>
          </g>
          <g id="Group_824" data-name="Group 824" transform="translate(152.736 0)">
            <g id="Group_808" data-name="Group 808">
              <g id="Group_805" data-name="Group 805" transform="translate(15.937 7.97)">
                <path id="Path_1708" data-name="Path 1708" d="M2459,2220.623v71.185h48.9a2.254,2.254,0,0,0,2.254-2.254v-66.677a2.254,2.254,0,0,0-2.254-2.254Z" transform="translate(-2449.771 -2220.623)" fill="#ace0cf"/>
                <path id="Path_1709" data-name="Path 1709" d="M2459,2291.808h-8.428a2.461,2.461,0,0,1-2.625-2.254v-66.677a2.461,2.461,0,0,1,2.625-2.254H2459a2.461,2.461,0,0,1,2.625,2.254v66.677A2.461,2.461,0,0,1,2459,2291.808Z" transform="translate(-2447.952 -2220.623)" fill="#fff"/>
              </g>
              <g id="Group_806" data-name="Group 806" transform="translate(35.742)">
                <path id="Path_1710" data-name="Path 1710" d="M2483.952,2211.082v79.155h54.378a2.506,2.506,0,0,0,2.506-2.506v-74.143a2.506,2.506,0,0,0-2.506-2.506Z" transform="translate(-2473.685 -2211.082)" fill="#129f72"/>
                <rect id="Rectangle_147" data-name="Rectangle 147" width="13.058" height="79.155" rx="3" fill="#5dc6a4"/>
              </g>
              <rect id="Rectangle_148" data-name="Rectangle 148" width="170.076" height="13.365" rx="6.683" transform="translate(0 77.566)" fill="#ace0cf"/>
              <g id="Group_807" data-name="Group 807" transform="translate(74.087 22.775)">
                <path id="Rectangle_149" data-name="Rectangle 149" d="M5.339,0H86.112a0,0,0,0,1,0,0V22.159a0,0,0,0,1,0,0H5.339A5.339,5.339,0,0,1,0,16.82V5.339A5.339,5.339,0,0,1,5.339,0Z" transform="translate(2.24 33.017)" fill="#0a7e59"/>
                <rect id="Rectangle_150" data-name="Rectangle 150" width="81.653" height="16.37" transform="translate(6.7 35.911)" fill="#fff"/>
                <rect id="Rectangle_151" data-name="Rectangle 151" width="81.652" height="0.525" transform="translate(6.701 38.773)" fill="#8c99de" opacity="0.12"/>
                <rect id="Rectangle_152" data-name="Rectangle 152" width="81.652" height="0.525" transform="translate(6.701 42.147)" fill="#8c99de" opacity="0.12"/>
                <rect id="Rectangle_153" data-name="Rectangle 153" width="81.652" height="0.525" transform="translate(6.701 45.521)" fill="#8c99de" opacity="0.12"/>
                <rect id="Rectangle_154" data-name="Rectangle 154" width="81.652" height="0.525" transform="translate(6.701 48.895)" fill="#8c99de" opacity="0.12"/>
                <path id="Rectangle_155" data-name="Rectangle 155" d="M4.361,0H70.342a0,0,0,0,1,0,0V18.1a0,0,0,0,1,0,0H4.361A4.361,4.361,0,0,1,0,13.74V4.361A4.361,4.361,0,0,1,4.361,0Z" transform="translate(0 15.167)" fill="#5dc6a4"/>
                <rect id="Rectangle_156" data-name="Rectangle 156" width="66.699" height="13.372" transform="translate(3.643 17.532)" fill="#fff"/>
                <rect id="Rectangle_157" data-name="Rectangle 157" width="66.699" height="0.428" transform="translate(3.643 19.87)" fill="#8c99de" opacity="0.12"/>
                <rect id="Rectangle_158" data-name="Rectangle 158" width="66.699" height="0.428" transform="translate(3.643 22.626)" fill="#8c99de" opacity="0.12"/>
                <rect id="Rectangle_159" data-name="Rectangle 159" width="66.699" height="0.428" transform="translate(3.643 25.382)" fill="#8c99de" opacity="0.12"/>
                <rect id="Rectangle_160" data-name="Rectangle 160" width="66.699" height="0.428" transform="translate(3.643 28.138)" fill="#8c99de" opacity="0.12"/>
                <path id="Rectangle_161" data-name="Rectangle 161" d="M4.361,0H70.342a0,0,0,0,1,0,0V15.418a0,0,0,0,1,0,0H4.361A4.361,4.361,0,0,1,0,11.057v-6.7A4.361,4.361,0,0,1,4.361,0Z" transform="translate(12.356)" fill="#ace0cf"/>
                <rect id="Rectangle_162" data-name="Rectangle 162" width="66.699" height="10.69" transform="translate(15.999 2.364)" fill="#fff"/>
                <rect id="Rectangle_163" data-name="Rectangle 163" width="66.699" height="0.428" transform="translate(15.999 4.776)" fill="#8c99de" opacity="0.12"/>
                <rect id="Rectangle_164" data-name="Rectangle 164" width="66.699" height="0.428" transform="translate(15.999 7.532)" fill="#8c99de" opacity="0.12"/>
                <rect id="Rectangle_165" data-name="Rectangle 165" width="66.699" height="0.428" transform="translate(15.999 10.288)" fill="#8c99de" opacity="0.12"/>
              </g>
            </g>
            <g id="Group_823" data-name="Group 823" transform="translate(131.36 65.653)">
              <g id="plant-2" data-name="plant" transform="translate(65.925)">
                <g id="Group_815" data-name="Group 815">
                  <g id="Group_809" data-name="Group 809" transform="translate(14.383)">
                    <path id="Path_1711" data-name="Path 1711" d="M2719.976,2331.807a7.538,7.538,0,0,1-3.923,1.134,12.608,12.608,0,0,1-2.767-.145,18.446,18.446,0,0,1-3.793-.989s.61-20.223-9.874-34.154-24.364-33.173-13.26-43.04,28.99,3.847,34.848,26.944S2719.976,2331.807,2719.976,2331.807Z" transform="translate(-2682.265 -2251.372)" fill="#a1d967"/>
                  </g>
                  <g id="Group_810" data-name="Group 810" transform="translate(27.464 15.872)">
                    <path id="Path_1712" data-name="Path 1712" d="M2718.631,2336.069a12.623,12.623,0,0,1-2.767-.145c3.368-35.9-17.526-63.633-17.738-63.914a.959.959,0,0,1,.472-1.487,1.636,1.636,0,0,1,1.905.376C2700.727,2271.18,2722.064,2299.461,2718.631,2336.069Z" transform="translate(-2697.926 -2270.373)" fill="#fff"/>
                  </g>
                  <g id="Group_811" data-name="Group 811" transform="translate(55.121 12.804)">
                    <path id="Path_1713" data-name="Path 1713" d="M2763.964,2301.692c-24.53,30.935-22.836,38.088-22.836,38.088l-3.221-.448-2.739-.375-3.905-.542c-2.173-13.721,11.336-71.716,35.421-71.716C2791.206,2266.7,2772.32,2291.162,2763.964,2301.692Z" transform="translate(-2731.035 -2266.701)" fill="#a1d967"/>
                  </g>
                  <g id="Group_812" data-name="Group 812" transform="translate(59.254 28.382)">
                    <path id="Path_1714" data-name="Path 1714" d="M2763.854,2286.964c-.232.3-20.773,28.886-25.132,55.44l-2.739-.375c4.479-26.98,25.225-55.823,25.447-56.133a1.621,1.621,0,0,1,1.9-.4A.971.971,0,0,1,2763.854,2286.964Z" transform="translate(-2735.982 -2285.35)" fill="#fff"/>
                  </g>
                  <g id="Group_813" data-name="Group 813" transform="translate(0 33.108)">
                    <path id="Path_1715" data-name="Path 1715" d="M2706.434,2341.077l-2.822.591-2.7.57-1.619.339c.1-.274-1.129-2.642-18.386-20.628-7.125-7.434-26.131-27.427-8.707-30.783C2688.178,2288.091,2706.9,2330.72,2706.434,2341.077Z" transform="translate(-2665.048 -2291.008)" fill="#a1d967"/>
                  </g>
                  <g id="Group_814" data-name="Group 814" transform="translate(10.192 43.779)">
                    <path id="Path_1716" data-name="Path 1716" d="M2705.621,2343.771l-2.7.57c-4.978-17.33-25.178-38.6-25.4-38.832a.942.942,0,0,1,.286-1.515,1.661,1.661,0,0,1,1.943.224C2680.638,2305.156,2700.495,2326.045,2705.621,2343.771Z" transform="translate(-2677.249 -2303.781)" fill="#fff"/>
                  </g>
                  <path id="Path_1717" data-name="Path 1717" d="M2736.649,2395.514h-40.058l-6.765-46.747c0-2.812,2.923-5.093,6.529-5.093h41.807c3.605,0,6.528,2.279,6.528,5.092Z" transform="translate(-2669.128 -2266.571)" fill="#c6e2a8"/>
                </g>
              </g>
              <g id="Group_822" data-name="Group 822" transform="translate(22.158 72.576)">
                <path id="Path_1718" data-name="Path 1718" d="M2622.534,2405.724s7.668-26.73,10.583-26.453,19.631,0,19.631,0,7.08,21.72,7.374,25.479S2622.534,2405.724,2622.534,2405.724Z" transform="translate(-2614.28 -2345.009)" fill="#c6e2a8"/>
                <circle id="Ellipse_213" data-name="Ellipse 213" cx="23.028" cy="23.028" r="23.028" transform="matrix(0.237, -0.972, 0.972, 0.237, 0, 44.745)" fill="#81cb34"/>
                <circle id="Ellipse_214" data-name="Ellipse 214" cx="18.913" cy="18.913" r="18.913" transform="translate(5.122 41.964) rotate(-76.905)" fill="#fff"/>
                <g id="Group_821" data-name="Group 821" transform="translate(10.979 10.905)">
                  <g id="Group_818" data-name="Group 818" transform="translate(4.901 4.994)">
                    <g id="Group_816" data-name="Group 816">
                      <path id="Path_1719" data-name="Path 1719" d="M2632.928,2359.031a.474.474,0,0,1-.337-.14l-.79-.79a.476.476,0,0,1,.673-.672l.791.789a.476.476,0,0,1-.337.813Z" transform="translate(-2631.662 -2357.289)" fill="#c6e2a8"/>
                      <path id="Path_1720" data-name="Path 1720" d="M2659.678,2385.78a.471.471,0,0,1-.336-.139l-.791-.79a.476.476,0,0,1,.673-.673l.789.79a.475.475,0,0,1-.336.812Z" transform="translate(-2636.067 -2361.694)" fill="#c6e2a8"/>
                    </g>
                    <g id="Group_817" data-name="Group 817">
                      <path id="Path_1721" data-name="Path 1721" d="M2632.137,2385.78a.475.475,0,0,1-.336-.812l.79-.79a.476.476,0,1,1,.674.673l-.791.79A.472.472,0,0,1,2632.137,2385.78Z" transform="translate(-2631.662 -2361.694)" fill="#c6e2a8"/>
                      <path id="Path_1722" data-name="Path 1722" d="M2658.887,2359.031a.476.476,0,0,1-.336-.813l.791-.789a.475.475,0,0,1,.672.672l-.789.79A.476.476,0,0,1,2658.887,2359.031Z" transform="translate(-2636.067 -2357.289)" fill="#c6e2a8"/>
                    </g>
                  </g>
                  <g id="Group_819" data-name="Group 819" transform="translate(15.84)">
                    <circle id="Ellipse_215" data-name="Ellipse 215" cx="1.089" cy="1.089" r="1.089" fill="#c6e2a8"/>
                    <circle id="Ellipse_216" data-name="Ellipse 216" cx="1.089" cy="1.089" r="1.089" transform="translate(0 31.679)" fill="#c6e2a8"/>
                  </g>
                  <g id="Group_820" data-name="Group 820" transform="translate(0 15.84)">
                    <path id="Path_1723" data-name="Path 1723" d="M2626.884,2370.273a1.089,1.089,0,1,1-1.088,1.089A1.089,1.089,0,0,1,2626.884,2370.273Z" transform="translate(-2625.796 -2370.273)" fill="#c6e2a8"/>
                    <path id="Path_1724" data-name="Path 1724" d="M2664.808,2370.273a1.089,1.089,0,1,1-1.088,1.089A1.088,1.088,0,0,1,2664.808,2370.273Z" transform="translate(-2632.041 -2370.273)" fill="#c6e2a8"/>
                  </g>
                </g>
                <path id="Path_2344" data-name="Path 2344" d="M.824,0h0a.824.824,0,0,1,.824.824v11.11a.824.824,0,0,1-.824.824h0A.824.824,0,0,1,0,11.934V.824A.824.824,0,0,1,.824,0Z" transform="translate(27.072 16.77)" fill="#81cb34"/>
                <path id="Path_2343" data-name="Path 2343" d="M.824,0h0a.824.824,0,0,1,.824.824V9.617a.824.824,0,0,1-.824.824h0A.824.824,0,0,1,0,9.617V.824A.824.824,0,0,1,.824,0Z" transform="translate(37.633 28) rotate(90)" fill="#81cb34"/>
              </g>
              <path id="Path_2342" data-name="Path 2342" d="M6.683,0H163.394a6.683,6.683,0,0,1,6.683,6.683h0a6.683,6.683,0,0,1-6.683,6.683H6.683A6.683,6.683,0,0,1,0,6.683H0A6.683,6.683,0,0,1,6.683,0Z" transform="translate(0 128.879)" fill="#c6e2a8"/>
            </g>
          </g>
        </g>
        <g id="girl" transform="translate(135.248 322.902)">
          <g id="Chair" transform="translate(0 91.898)">
            <g id="Group_825" data-name="Group 825" transform="translate(54.54 142.335)">
              <path id="Path_1725" data-name="Path 1725" d="M2378.9,2723.811h-80.366a14.932,14.932,0,0,1,14.927-14.928h.14s17.056-2.225,17.056-16.155v-83.122h16.12v83.122c0,13.93,17.056,16.155,17.056,16.155h.139A14.927,14.927,0,0,1,2378.9,2723.811Z" transform="translate(-2298.531 -2609.606)" fill="#129f72"/>
              <path id="Path_1726" data-name="Path 1726" d="M2353.106,2609.606v3.307l-16.121,4.785v-8.092Z" transform="translate(-2304.863 -2609.606)" fill="#129f72"/>
            </g>
            <path id="Path_1727" data-name="Path 1727" d="M2363.983,2629.034h-47.562a8.852,8.852,0,0,1-8.853-8.852h0a8.853,8.853,0,0,1,8.853-8.853h47.562a8.853,8.853,0,0,1,8.853,8.853h0A8.852,8.852,0,0,1,2363.983,2629.034Z" transform="translate(-2245.479 -2467.554)" fill="#045633"/>
            <path id="Path_2341" data-name="Path 2341" d="M0,0H16.875V11.577H0Z" transform="translate(86.201 157.342)" fill="#045633"/>
            <g id="Group_826" data-name="Group 826" transform="translate(8.263)">
              <path id="Path_1728" data-name="Path 1728" d="M2404.279,2593.061a65.5,65.5,0,0,1-65.428-65.428v-80.157a8.263,8.263,0,1,1,16.525,0v80.157a48.958,48.958,0,0,0,48.9,48.9,8.262,8.262,0,1,1,0,16.525Z" transform="translate(-2258.893 -2439.212)" fill="#037a4a"/>
              <path id="Path_1729" data-name="Path 1729" d="M2331.352,2439.213h-88.22l5.365,64.729-2.573,48.685,44,28.014,10.373,12.419h88.22l-23.978-15.2-17.883-20.268-7.154-4.372-5.961-39.343-.4-47.292Z" transform="translate(-2243.131 -2439.213)" fill="#037a4a"/>
            </g>
            <path id="Path_1730" data-name="Path 1730" d="M2298.668,2593.061a65.5,65.5,0,0,1-65.428-65.428v-80.157a8.263,8.263,0,1,1,16.525,0v80.157a48.958,48.958,0,0,0,48.9,48.9,8.262,8.262,0,1,1,0,16.525Z" transform="translate(-2233.24 -2439.212)" fill="#129f72"/>
          </g>
          <path id="Path_1731" data-name="Path 1731" d="M2395.8,2688.768a6.077,6.077,0,0,0-3.054,4.3c-1.374,8.265-1.554,32.488,2.5,38.854,4.863,7.632,44.215,5.377,47.73,1.55s-27.544-10.881-31.292-14.511-.946-15.931-1.206-20.186C2410.242,2694.812,2406.957,2682.55,2395.8,2688.768Z" transform="translate(-2259.36 -2388.124)" fill="#006cbe"/>
          <path id="Path_1732" data-name="Path 1732" d="M2491.892,2650.273a4.544,4.544,0,0,0-.043,4.3c3.235,6.172,13.509,24.98,19.775,27.349,7.512,2.839,37.434-19.536,38.061-23.739s-25.917,5.565-30.549,4.884-8.89-10.223-11.268-12.949C2505.653,2647.583,2496.924,2640.909,2491.892,2650.273Z" transform="translate(-2275.739 -2381.273)" fill="#006cbe"/>
          <path id="Path_1733" data-name="Path 1733" d="M2305.687,2542.658a8.741,8.741,0,0,0-11.25,9.006c1.394,18.093,10.685,48.384,57.646,45.881,29.863-1.462,53.879-7.518,67.453,7.309s33,48.469,50.955,54.506c.418.189,11.753-12.667,14.885-13.71s-14.05-20.514-20.314-49.032c-6.056-19.537-32.16-51.7-115.485-47.939A143.457,143.457,0,0,1,2305.687,2542.658Z" transform="translate(-2243.313 -2364.286)" fill="#499d75"/>
          <path id="Path_1734" data-name="Path 1734" d="M2440.7,2584.668s30.126-4.492,18.552,45.346c.589.688-10.834-12.761-10.834-12.761S2454.485,2586.756,2440.7,2584.668Z" transform="translate(-2267.401 -2371.249)" fill="#147b4a"/>
          <path id="Path_1735" data-name="Path 1735" d="M2294.411,2547.528s.638,15.643,2.215,17.323,28.231-7.515,48.213-9.7C2347.593,2553.584,2313.485,2542.1,2294.411,2547.528Z" transform="translate(-2243.313 -2364.912)" fill="#147b4a"/>
          <path id="Path_1736" data-name="Path 1736" d="M2387.874,2691.119s9.1-120.633,50.245-105.04c21.225,9.746,7.8,55.227-27.937,112.837C2409.748,2700,2388.74,2693.285,2387.874,2691.119Z" transform="translate(-2258.703 -2371.27)" fill="#499d75"/>
          <path id="Path_1737" data-name="Path 1737" d="M2357.388,2552.037a322.4,322.4,0,0,1,44.217,3.968c22.4,3.759,36.257,5.364,35.339,4.961s-38.671-16.351-83.3-11.213C2336.573,2550.576,2357.388,2552.037,2357.388,2552.037Z" transform="translate(-2251.959 -2365.349)" fill="#147b4a"/>
          <path id="Path_1738" data-name="Path 1738" d="M2401.231,2486.084s23.389,20.531,47.614,20.323c6.891.835,15.036,18.377-1.044,16.08s-78.65-24.358-80.57-36.4S2394.131,2474.114,2401.231,2486.084Z" transform="translate(-2255.289 -2353.55)" fill="#fac896"/>
          <path id="Path_1739" data-name="Path 1739" d="M2376.28,2492.38s48.052,10.57,57.6,18.427c7.265,5.983,7.132,11.973,6.733,13.713s-54.834-29.445-65.972-30.7S2376.28,2492.38,2376.28,2492.38Z" transform="translate(-2255.772 -2356.069)" fill="#f39c55"/>
          <path id="Path_1740" data-name="Path 1740" d="M2373.09,2439.543a6.009,6.009,0,0,1,7.106,2.678c5.813,9.715,23.59,39.327,24.812,40.2,1.462,1.044-25.289-1.879-26.636,3.759C2377.141,2491.333,2357.834,2445,2373.09,2439.543Z" transform="translate(-2255.306 -2347.314)" fill="#fcbc2e"/>
          <path id="Path_1741" data-name="Path 1741" d="M2385.12,2479.673l1.194,1.194a.568.568,0,0,1-.8.8l-1.195-1.194a.568.568,0,0,1,.8-.8Zm-1.242-13.425,1.195,1.194a.568.568,0,1,0,.8-.8l-1.194-1.194a.568.568,0,0,0-.8.8Zm2.437-4.66-1.194-1.194a.568.568,0,0,0-.8.8l1.195,1.194a.568.568,0,0,0,.8-.8Zm-2.437,9.711,1.195,1.193a.568.568,0,0,0,.8-.8l-1.194-1.194a.568.568,0,1,0-.8.8Zm4.725-13.839a.568.568,0,0,0,.8.8l.452-.451-.606-1Zm2,7.984a.57.57,0,0,0-.8,0l-1.194,1.194a.568.568,0,0,0,.8.8l1.194-1.194a.57.57,0,0,0,0-.8Zm-5.529,12.1a.568.568,0,1,0,.8-.8l-1.194-1.194a.568.568,0,0,0-.8.8Zm5.529-7.048h0a.571.571,0,0,0-.8,0l-1.194,1.194a.568.568,0,0,0,.8.8l1.194-1.193A.57.57,0,0,0,2390.6,2470.494Zm0,5.05h0a.571.571,0,0,0-.8,0l-1.194,1.194a.568.568,0,0,0,.8.8l1.194-1.195A.568.568,0,0,0,2390.6,2475.544Zm-5.529-22.332a.568.568,0,0,0,.8-.8l-1.194-1.195a.569.569,0,0,0-.8.8Zm4.287,26.461-1.194,1.194a.569.569,0,0,0,.8.8l1.194-1.194a.568.568,0,0,0-.8-.8Zm12.159,0a.568.568,0,0,0-.8.8l1.193,1.194a.568.568,0,0,0,.8-.8Zm-1.242-4.129a.568.568,0,0,0,0,.8l1.193,1.195a.567.567,0,0,0,.581.131c-.447-.7-.927-1.47-1.435-2.283A.556.556,0,0,0,2400.276,2475.544Zm-16.4-18.476,1.195,1.195a.568.568,0,0,0,.8-.8l-1.194-1.2a.568.568,0,0,0-.8.8Zm5.092,5.323,1.194-1.194a.568.568,0,0,0-.8-.8l-1.194,1.194a.569.569,0,0,0,.8.8Zm15.594,19.28a.567.567,0,0,0,.18.119c-.1-.147-.22-.318-.342-.5A.564.564,0,0,0,2404.563,2481.671Zm-27.594-11.177a.571.571,0,0,0-.8,0l-1.194,1.194a.568.568,0,0,0,.8.8l1.195-1.193A.572.572,0,0,0,2376.969,2470.494Zm-1.633-8.1,1.194-1.194a.568.568,0,0,0-.8-.8l-1.195,1.194a.568.568,0,0,0,.8.8Zm1.633-11.177a.572.572,0,0,0-.8,0l-1.194,1.195a.568.568,0,0,0,.8.8l1.195-1.193A.572.572,0,0,0,2376.969,2451.214Zm-1.633-8.1,1.194-1.195a.568.568,0,0,0-.8-.8l-1.195,1.194a.569.569,0,0,0,.8.8Zm1.633,22.332a.571.571,0,0,0-.8,0l-1.194,1.194a.568.568,0,0,0,.8.8l1.195-1.194A.571.571,0,0,0,2376.969,2465.444Zm-5.091-22.332a.569.569,0,1,0,.8-.8l-1.194-1.194a.6.6,0,0,0-.1-.064,7.464,7.464,0,0,0-.791.741.529.529,0,0,0,.084.126Zm3.458,38.559,1.194-1.194a.568.568,0,1,0-.8-.8l-1.03,1.029c.164.372.325.727.484,1.072A.544.544,0,0,0,2375.335,2481.671Zm.829-35.507-1.194,1.194a.568.568,0,0,0,.8.8l1.195-1.194a.568.568,0,0,0-.8-.8Zm.8,38.559a.56.56,0,0,0-.379-.161c.168.3.329.564.483.807A.566.566,0,0,0,2376.969,2484.723Zm0-28.459a.573.573,0,0,0-.8,0l-1.194,1.2a.568.568,0,0,0,.8.8l1.195-1.195A.571.571,0,0,0,2376.969,2456.264Zm-5.529-8.1a.568.568,0,0,0,.8-.8l-1.194-1.194a.568.568,0,0,0-.8.8Zm-1.195,8.906,1.195,1.195a.568.568,0,0,0,.8-.8l-1.194-1.2a.568.568,0,0,0-.8.8Zm5.919,18.476-1.194,1.194a.568.568,0,0,0,.8.8l1.195-1.195a.568.568,0,0,0-.8-.8Zm-5.919-23.526,1.195,1.193a.568.568,0,0,0,.8-.8l-1.194-1.195a.568.568,0,1,0-.8.8Zm2,20.473a.57.57,0,0,0,0-.8l-1.194-1.194a.577.577,0,0,0-.1-.07q.337,1.115.692,2.194A.568.568,0,0,0,2372.243,2472.491Zm-.8-5.05a.568.568,0,1,0,.8-.8l-1.194-1.194a.568.568,0,0,0-.8.8Zm.438-5.05a.568.568,0,0,0,.8-.8l-1.194-1.194a.568.568,0,0,0-.8.8Z" transform="translate(-2255.773 -2347.6)" fill="#eed095"/>
          <path id="Path_1742" data-name="Path 1742" d="M2382.586,2444.563s10.331,35.643,9.815,38.9c-.3.009-8.571-.054-10.185,1.04S2379.767,2445.712,2382.586,2444.563Z" transform="translate(-2257.527 -2348.195)" fill="#fda428"/>
          <path id="Path_2340" data-name="Path 2340" d="M9.408,0h0a9.408,9.408,0,0,1,9.408,9.408v28.5a9.408,9.408,0,0,1-9.408,9.408h0A9.408,9.408,0,0,1,0,37.909V9.408A9.408,9.408,0,0,1,9.408,0Z" transform="matrix(0.797, 0.603, -0.603, 0.797, 122.063, 50.13)" fill="#fac896"/>
          <path id="Path_1743" data-name="Path 1743" d="M2376.446,2420.684s2.3,21.092,2.923,21.3-21.927-7.518-19.212-9.4S2368.927,2420.057,2376.446,2420.684Z" transform="translate(-2254.102 -2344.259)" fill="#fac896"/>
          <path id="Path_1744" data-name="Path 1744" d="M2404.306,2368.266s10.721-1.253,11.974,13.226c.7,9.189-7.936,23.111-14.9,16.01S2394.144,2374.114,2404.306,2368.266Z" transform="translate(-2260.105 -2335.627)" fill="#295000"/>
          <path id="Path_1745" data-name="Path 1745" d="M2378.857,2420.807l7.316-9.668s-13.871-11.654-15.425-10.8S2368.211,2408.411,2378.857,2420.807Z" transform="translate(-2255.726 -2340.906)" fill="#f39c55"/>
          <ellipse id="Ellipse_217" data-name="Ellipse 217" cx="16.185" cy="22.241" rx="16.185" ry="22.241" transform="translate(112.738 28.811)" fill="#fac896"/>
          <ellipse id="Ellipse_218" data-name="Ellipse 218" cx="5.847" cy="7.414" rx="5.847" ry="7.414" transform="translate(106.055 44.055)" fill="#fac896"/>
          <path id="Path_1746" data-name="Path 1746" d="M2347.452,2416.939s5.912,16.5,19.69,18.794c2.5.627,13.937,57.43-9.845,95.855-1.227,1.253-53.018,9.188-64.921-2.3C2292.585,2528.873,2283.076,2427.38,2347.452,2416.939Z" transform="translate(-2242.915 -2343.646)" fill="#fcbc2e"/>
          <path id="Path_1747" data-name="Path 1747" d="M2329.6,2423.251c.371-.207.751-.406,1.13-.606l-.495.495A.567.567,0,0,1,2329.6,2423.251Zm1.83,22.221a.569.569,0,0,0-.8,0l-1.194,1.194a.569.569,0,0,0,.8.8l1.194-1.195A.571.571,0,0,0,2331.431,2445.472Zm0-5.051a.57.57,0,0,0-.8,0l-1.194,1.195a.568.568,0,0,0,.8.8l1.194-1.194A.572.572,0,0,0,2331.431,2440.421Zm-6.724.8,1.194,1.194a.568.568,0,1,0,.8-.8l-1.194-1.195a.568.568,0,0,0-.8.8Zm1.194-3.856a.569.569,0,1,0,.8-.8l-1.194-1.194a.568.568,0,0,0-.8.8Zm5.53-2a.572.572,0,0,0-.8,0l-1.194,1.194a.568.568,0,0,0,.8.8l1.194-1.195A.571.571,0,0,0,2331.431,2435.371Zm0-9.179a.571.571,0,0,0-.8,0l-1.194,1.194a.569.569,0,0,0,.8.8l1.194-1.195A.571.571,0,0,0,2331.431,2426.192Zm-6.724,58.642,1.194,1.195a.569.569,0,0,0,.8-.8l-1.194-1.194a.57.57,0,0,0-.8,0h0A.568.568,0,0,0,2324.707,2484.834Zm0-19.279,1.194,1.194a.569.569,0,1,0,.8-.8l-1.194-1.194a.568.568,0,1,0-.8.8Zm0,14.229,1.194,1.195a.568.568,0,1,0,.8-.8l-1.194-1.194a.568.568,0,0,0-.8.8Zm0-5.049,1.194,1.194a.568.568,0,1,0,.8-.8l-1.194-1.195a.569.569,0,0,0-.8.8Zm0-19.279,1.194,1.193a.568.568,0,1,0,.8-.8l-1.194-1.194a.57.57,0,0,0-.8,0h0A.57.57,0,0,0,2324.707,2455.455Zm0,5.049,1.194,1.195a.569.569,0,1,0,.8-.8l-1.194-1.195a.568.568,0,0,0-.8.8Zm0-14.229,1.194,1.195a.569.569,0,0,0,.8-.8l-1.194-1.194a.568.568,0,0,0-.8.8Zm6.724,71.264a.572.572,0,0,0-.8,0l-1.194,1.195a.568.568,0,0,0,.8.8l1.194-1.195A.571.571,0,0,0,2331.431,2517.539Zm0-5.05a.571.571,0,0,0-.8,0l-1.194,1.194a.568.568,0,0,0,.8.8l1.194-1.194A.572.572,0,0,0,2331.431,2512.489Zm0-9.178a.57.57,0,0,0-.8,0l-1.194,1.194a.569.569,0,0,0,.8.8l1.194-1.194A.571.571,0,0,0,2331.431,2503.31Zm0-5.051a.572.572,0,0,0-.8,0l-1.194,1.195a.568.568,0,0,0,.8.8l1.194-1.194A.572.572,0,0,0,2331.431,2498.26Zm-2.437,30.457a.569.569,0,0,0,.8,0l1.195-1.194a.568.568,0,1,0-.8-.8l-1.194,1.194A.57.57,0,0,0,2328.994,2528.716Zm2.437-74.065h0a.571.571,0,0,0-.8,0l-1.194,1.194a.568.568,0,0,0,.8.8l1.194-1.193A.572.572,0,0,0,2331.431,2454.651Zm0,67.939a.57.57,0,0,0-.8,0l-1.194,1.195a.568.568,0,0,0,.8.8l1.194-1.194A.572.572,0,0,0,2331.431,2522.589Zm0-57.838a.571.571,0,0,0-.8,0l-1.194,1.194a.569.569,0,0,0,.8.8l1.194-1.194A.572.572,0,0,0,2331.431,2464.751Zm0,28.458a.572.572,0,0,0-.8,0l-1.194,1.194a.568.568,0,0,0,.8.8l1.194-1.194A.572.572,0,0,0,2331.431,2493.209Zm0-33.509a.57.57,0,0,0-.8,0l-1.194,1.195a.568.568,0,0,0,.8.8l1.194-1.195A.571.571,0,0,0,2331.431,2459.7Zm0,14.229a.572.572,0,0,0-.8,0l-1.194,1.195a.568.568,0,0,0,.8.8l1.194-1.194A.573.573,0,0,0,2331.431,2473.93Zm0,10.1h0a.57.57,0,0,0-.8,0l-1.194,1.194a.569.569,0,0,0,.8.8l1.194-1.195A.571.571,0,0,0,2331.431,2484.031Zm0-5.05a.57.57,0,0,0-.8,0l-1.194,1.194a.568.568,0,0,0,.8.8l1.194-1.195A.571.571,0,0,0,2331.431,2478.98Zm23.308-4.246,1.194,1.194a.568.568,0,0,0,.8-.8l-1.194-1.195a.569.569,0,0,0-.8.8Zm0-19.279,1.194,1.193a.568.568,0,1,0,.8-.8l-1.194-1.194a.57.57,0,0,0-.8,0h0A.57.57,0,0,0,2354.739,2455.455Zm0,5.049,1.194,1.195a.568.568,0,0,0,.8-.8l-1.194-1.195a.568.568,0,0,0-.8.8Zm-25.744,48.932a.569.569,0,0,0,.8,0l1.195-1.193a.568.568,0,0,0-.8-.8l-1.194,1.194A.569.569,0,0,0,2328.994,2509.436Zm25.744-43.881,1.194,1.194a.568.568,0,0,0,.8-.8l-1.194-1.194a.568.568,0,1,0-.8.8Zm1.194-23.136a.568.568,0,1,0,.8-.8l-1.194-1.195a.568.568,0,0,0-.8.8Zm-1.194,3.856,1.194,1.195a.568.568,0,0,0,.8-.8l-1.194-1.194a.568.568,0,0,0-.8.8Zm0,57.839,1.194,1.194a.568.568,0,0,0,.8-.8l-1.194-1.194a.568.568,0,0,0-.8.8Zm-30.031-10.1,1.194,1.194a.568.568,0,1,0,.8-.8l-1.194-1.194a.569.569,0,0,0-.8.8Zm30.031,37.755a.563.563,0,0,0-.076.691c.486-.1.922-.187,1.3-.272l-.418-.418A.571.571,0,0,0,2354.739,2531.768Zm0-18.475,1.194,1.194a.568.568,0,0,0,.8-.8l-1.194-1.194a.568.568,0,1,0-.8.8Zm0-33.51,1.194,1.195a.568.568,0,0,0,.8-.8l-1.194-1.194a.568.568,0,0,0-.8.8Zm0,14.23,1.194,1.194a.568.568,0,1,0,.8-.8l-1.194-1.194a.568.568,0,1,0-.8.8Zm0-9.18,1.194,1.195a.568.568,0,0,0,.8-.8l-1.194-1.194a.569.569,0,0,0-.8,0h0A.568.568,0,0,0,2354.739,2484.834Zm0,14.229,1.194,1.194a.568.568,0,0,0,.8-.8l-1.194-1.195a.568.568,0,0,0-.8.8Zm-30.031,19.279,1.194,1.195a.569.569,0,1,0,.8-.8l-1.194-1.195a.568.568,0,0,0-.8.8Zm1.632,10.373a.57.57,0,0,0,.8,0h0a.571.571,0,0,0,0-.8l-1.194-1.194a.568.568,0,0,0-.8.8Zm-1.632-5.323,1.194,1.194a.568.568,0,1,0,.8-.8l-1.194-1.195a.568.568,0,0,0-.8.8Zm1.194,10.373a.57.57,0,0,0,.8,0h0a.571.571,0,0,0,0-.8l-1.194-1.194a.568.568,0,1,0-.8.8Zm-1.194-29.652,1.194,1.194a.569.569,0,1,0,.8-.8l-1.194-1.194a.568.568,0,0,0-.8.8Zm0-5.051,1.194,1.194a.568.568,0,1,0,.8-.8l-1.194-1.195a.568.568,0,0,0-.8.8Zm0,14.23,1.194,1.194a.569.569,0,1,0,.8-.8l-1.194-1.194a.569.569,0,0,0-.8.8Zm2.436-81.778-1.194-1.195a.569.569,0,0,0-.8.8l1.194,1.194a.57.57,0,0,0,.8,0h0A.571.571,0,0,0,2327.144,2431.515Zm-2.436-4.519,1.194,1.195a.569.569,0,0,0,.8-.8l-1.194-1.194a.558.558,0,0,0-.348-.156c-.2.139-.4.277-.594.419A.56.56,0,0,0,2324.707,2427Zm2.436,81.637-1.194-1.194a.568.568,0,1,0-.8.8l1.194,1.193a.57.57,0,0,0,.8,0h0A.57.57,0,0,0,2327.144,2508.633Zm0-57.839-1.194-1.194a.568.568,0,1,0-.8.8l1.194,1.194a.57.57,0,0,0,.8,0h0A.571.571,0,0,0,2327.144,2450.794Zm0,19.28-1.194-1.194a.568.568,0,0,0-.8.8l1.194,1.194a.569.569,0,0,0,.8,0h0A.57.57,0,0,0,2327.144,2470.074Zm0,19.28-1.194-1.194a.568.568,0,0,0-.8.8l1.194,1.194a.57.57,0,0,0,.8,0h0A.57.57,0,0,0,2327.144,2489.354Zm13.633,19.28-1.194-1.194a.568.568,0,1,0-.8.8l1.194,1.193a.568.568,0,1,0,.8-.8Zm4.287-43.882a.57.57,0,0,0-.8,0l-1.195,1.194a.569.569,0,0,0,.8.8l1.195-1.194A.57.57,0,0,0,2345.063,2464.751Zm0-10.1h0a.57.57,0,0,0-.8,0l-1.195,1.194a.568.568,0,0,0,.8.8l1.195-1.193A.57.57,0,0,0,2345.063,2454.651Zm0,5.05a.569.569,0,0,0-.8,0l-1.195,1.195a.568.568,0,0,0,.8.8l1.195-1.195A.569.569,0,0,0,2345.063,2459.7Zm0,14.229a.571.571,0,0,0-.8,0l-1.195,1.195a.568.568,0,0,0,.8.8l1.195-1.194A.57.57,0,0,0,2345.063,2473.93Zm0,5.051a.569.569,0,0,0-.8,0l-1.195,1.194a.568.568,0,0,0,.8.8l1.195-1.195A.569.569,0,0,0,2345.063,2478.98Zm0,5.05h0a.57.57,0,0,0-.8,0l-1.195,1.194a.569.569,0,0,0,.8.8l1.195-1.195A.569.569,0,0,0,2345.063,2484.031Zm0-62.889a.569.569,0,0,0-.8,0l-1.195,1.194a.568.568,0,0,0,.8.8l1.195-1.194A.569.569,0,0,0,2345.063,2421.142Zm0,72.067a.571.571,0,0,0-.8,0l-1.195,1.194a.568.568,0,0,0,.8.8l1.195-1.194A.57.57,0,0,0,2345.063,2493.209Zm-1.195-75.119.381-.381c-.418.094-.829.2-1.24.3a.7.7,0,0,0,.055.084A.571.571,0,0,0,2343.869,2418.09Zm-14.875,72.067a.569.569,0,0,0,.8,0l1.195-1.194a.568.568,0,0,0-.8-.8l-1.194,1.194A.569.569,0,0,0,2328.994,2490.157Zm16.069-49.736a.57.57,0,0,0-.8,0l-1.195,1.195a.568.568,0,0,0,.8.8l1.195-1.194A.57.57,0,0,0,2345.063,2440.421Zm0-5.05a.571.571,0,0,0-.8,0l-1.195,1.194a.568.568,0,0,0,.8.8l1.195-1.195A.569.569,0,0,0,2345.063,2435.371Zm0,10.1a.569.569,0,0,0-.8,0l-1.195,1.194a.569.569,0,0,0,.8.8l1.195-1.195A.569.569,0,0,0,2345.063,2445.472Zm0,57.838a.569.569,0,0,0-.8,0l-1.195,1.194a.569.569,0,0,0,.8.8l1.195-1.194A.569.569,0,0,0,2345.063,2503.31Zm-2.437-51.712a.569.569,0,0,0,.8,0l1.195-1.194a.568.568,0,0,0-.8-.8l-1.194,1.194A.57.57,0,0,0,2342.627,2451.6Zm.8-19.279,1.195-1.194a.569.569,0,1,0-.8-.8l-1.194,1.195a.568.568,0,0,0,.8.8Zm-.8,57.838a.569.569,0,0,0,.8,0l1.195-1.194a.568.568,0,0,0-.8-.8l-1.194,1.194A.57.57,0,0,0,2342.627,2490.157Zm0-19.279a.568.568,0,0,0,.8,0l1.195-1.194a.568.568,0,0,0-.8-.8l-1.194,1.194A.57.57,0,0,0,2342.627,2470.877Zm2.437,27.382a.571.571,0,0,0-.8,0l-1.195,1.195a.568.568,0,0,0,.8.8l1.195-1.194A.57.57,0,0,0,2345.063,2498.26Zm13.961,29.653a.57.57,0,0,0,0,.8.547.547,0,0,0,.273.141q.641-1.137,1.244-2.289a.552.552,0,0,0-.322.151Zm-15.156,5.854,1.195-1.194a.568.568,0,0,0-.8-.8l-1.195,1.194a.57.57,0,0,0,0,.8h0A.57.57,0,0,0,2343.869,2533.766Zm1.195-21.278a.571.571,0,0,0-.8,0l-1.195,1.194a.568.568,0,0,0,.8.8l1.195-1.194A.57.57,0,0,0,2345.063,2512.489Zm-2.437-3.052a.569.569,0,0,0,.8,0l1.195-1.193a.568.568,0,0,0-.8-.8l-1.194,1.194A.57.57,0,0,0,2342.627,2509.436Zm2.437,8.1a.571.571,0,0,0-.8,0l-1.195,1.195a.568.568,0,0,0,.8.8l1.195-1.195A.569.569,0,0,0,2345.063,2517.539ZM2338.34,2427l1.194,1.195a.569.569,0,1,0,.8-.8l-1.194-1.194a.568.568,0,0,0-.8.8Zm4.287,101.72a.569.569,0,0,0,.8,0l1.195-1.194a.568.568,0,1,0-.8-.8l-1.194,1.194A.57.57,0,0,0,2342.627,2528.716Zm2.437-6.127a.57.57,0,0,0-.8,0l-1.195,1.195a.568.568,0,0,0,.8.8l1.195-1.194A.57.57,0,0,0,2345.063,2522.589Zm0-96.4a.57.57,0,0,0-.8,0l-1.195,1.194a.569.569,0,0,0,.8.8l1.195-1.195A.569.569,0,0,0,2345.063,2426.192Zm-4.287,101.72-1.194-1.194a.568.568,0,0,0-.8.8l1.194,1.194a.568.568,0,1,0,.8-.8Zm13.962-9.57,1.194,1.195a.568.568,0,0,0,.8-.8l-1.194-1.195a.568.568,0,0,0-.8.8Zm-13.962-48.269-1.194-1.194a.568.568,0,0,0-.8.8l1.194,1.194a.568.568,0,1,0,.8-.8Zm0,19.28-1.194-1.194a.568.568,0,0,0-.8.8l1.194,1.194a.568.568,0,1,0,.8-.8Zm-2.437,43.219,1.194,1.194a.57.57,0,0,0,.8,0h0a.569.569,0,0,0,0-.8l-1.194-1.194a.568.568,0,1,0-.8.8Zm0-9.179,1.194,1.194a.568.568,0,0,0,.8-.8l-1.194-1.195a.568.568,0,0,0-.8.8Zm-8.542-91.075,1.195-1.194a.569.569,0,1,0-.8-.8l-1.194,1.195a.568.568,0,0,0,.8.8Zm-.8,19.279a.569.569,0,0,0,.8,0l1.195-1.194a.568.568,0,0,0-.8-.8l-1.194,1.194A.57.57,0,0,0,2328.994,2451.6Zm9.346,66.745,1.194,1.195a.568.568,0,1,0,.8-.8l-1.194-1.195a.568.568,0,0,0-.8.8Zm2.437-67.549-1.194-1.194a.568.568,0,1,0-.8.8l1.194,1.194a.568.568,0,1,0,.8-.8Zm-11.782,20.083a.568.568,0,0,0,.8,0l1.195-1.194a.568.568,0,0,0-.8-.8l-1.194,1.194A.569.569,0,0,0,2328.994,2470.877Zm1.242,62.889,1.194-1.194a.569.569,0,0,0-.8-.8l-1.194,1.194a.57.57,0,0,0,0,.8h0A.57.57,0,0,0,2330.237,2533.766Zm10.54-102.251-1.194-1.195a.569.569,0,0,0-.8.8l1.194,1.194a.568.568,0,1,0,.8-.8Zm-2.437,81.778,1.194,1.194a.568.568,0,1,0,.8-.8l-1.194-1.194a.569.569,0,0,0-.8.8Zm1.194-90.153a.568.568,0,0,0,.8-.8l-1.194-1.194a.568.568,0,0,0-.8.8Zm-1.194,37.365,1.194,1.195a.568.568,0,1,0,.8-.8l-1.194-1.195a.568.568,0,0,0-.8.8Zm0,5.051,1.194,1.194a.569.569,0,1,0,.8-.8l-1.194-1.194a.568.568,0,1,0-.8.8Zm0-19.28,1.194,1.195a.568.568,0,0,0,.8-.8l-1.194-1.194a.568.568,0,0,0-.8.8Zm0-5.05,1.194,1.194a.568.568,0,0,0,.8-.8l-1.194-1.195a.568.568,0,0,0-.8.8Zm0-5.051,1.194,1.195a.568.568,0,1,0,.8-.8l-1.194-1.194a.568.568,0,0,0-.8.8Zm0,19.281,1.194,1.193a.568.568,0,0,0,.8-.8l-1.194-1.194a.57.57,0,0,0-.8,0h0A.571.571,0,0,0,2338.34,2455.455Zm0,43.608,1.194,1.194a.568.568,0,0,0,.8-.8l-1.194-1.195a.568.568,0,0,0-.8.8Zm0-5.05,1.194,1.194a.568.568,0,0,0,.8-.8l-1.194-1.194a.569.569,0,0,0-.8.8Zm0,10.1,1.194,1.194a.569.569,0,1,0,.8-.8l-1.194-1.194a.568.568,0,0,0-.8.8Zm0-19.28,1.194,1.195a.568.568,0,0,0,.8-.8l-1.194-1.194a.57.57,0,0,0-.8,0h0A.569.569,0,0,0,2338.34,2484.834Zm0-10.1,1.194,1.194a.568.568,0,0,0,.8-.8l-1.194-1.195a.569.569,0,0,0-.8.8Zm0,5.049,1.194,1.195a.568.568,0,0,0,.8-.8l-1.194-1.194a.568.568,0,0,0-.8.8Zm-36.94,37.755a.571.571,0,0,0-.8,0l-1.195,1.195a.568.568,0,0,0,.8.8l1.195-1.195A.569.569,0,0,0,2301.4,2517.539Zm6.909-13.425,1.195,1.194a.569.569,0,1,0,.8-.8l-1.194-1.194a.57.57,0,0,0-.8,0h0A.571.571,0,0,0,2308.309,2504.114Zm0,9.179,1.195,1.194a.568.568,0,0,0,.8-.8l-1.194-1.194a.571.571,0,0,0-.8,0h0A.572.572,0,0,0,2308.309,2513.293Zm0,5.05,1.195,1.195a.568.568,0,0,0,.8-.8l-1.194-1.195a.572.572,0,0,0-.8,0h0A.571.571,0,0,0,2308.309,2518.343Zm0-24.329,1.195,1.194a.568.568,0,0,0,.8-.8l-1.194-1.194a.572.572,0,0,0-.8,0h0A.572.572,0,0,0,2308.309,2494.014Zm0,5.05,1.195,1.194a.568.568,0,1,0,.8-.8l-1.194-1.195a.572.572,0,0,0-.8,0h0A.572.572,0,0,0,2308.309,2499.063Zm0,24.33,1.195,1.194a.568.568,0,1,0,.8-.8l-1.194-1.195a.57.57,0,0,0-.8,0h0A.572.572,0,0,0,2308.309,2523.393Zm0-38.559,1.195,1.195a.569.569,0,0,0,.8-.8l-1.194-1.194a.57.57,0,0,0-.8,0h0A.571.571,0,0,0,2308.309,2484.834Zm0,47.739,1.195,1.194a.57.57,0,0,0,.8,0h0a.57.57,0,0,0,0-.8l-1.194-1.194a.572.572,0,0,0-.8,0h0A.572.572,0,0,0,2308.309,2532.573Zm2.437-62.5-1.194-1.194a.569.569,0,1,0-.8.8l1.195,1.194a.568.568,0,0,0,.8-.8Zm0-19.28-1.194-1.194a.569.569,0,0,0-.8.8l1.195,1.194a.568.568,0,0,0,.8-.8Zm0,38.559-1.194-1.194a.568.568,0,0,0-.8.8l1.195,1.194a.568.568,0,0,0,.8-.8Zm0,38.559-1.194-1.194a.568.568,0,0,0-.8.8l1.195,1.194a.568.568,0,0,0,.8-.8Zm0-19.279-1.194-1.194a.569.569,0,0,0-.8.8l1.195,1.193a.568.568,0,0,0,.8-.8Zm-.438-66.214a.569.569,0,0,0,0-.8l-.08-.08q-.317.471-.625.948A.562.562,0,0,0,2310.307,2442.419Zm4.725,22.332a.57.57,0,0,0-.8,0l-1.195,1.194a.569.569,0,0,0,.8.8l1.194-1.194A.569.569,0,0,0,2315.032,2464.751Zm0-5.05a.569.569,0,0,0-.8,0l-1.195,1.195a.569.569,0,0,0,.8.8l1.194-1.195A.569.569,0,0,0,2315.032,2459.7Zm0-5.05h0a.57.57,0,0,0-.8,0l-1.195,1.194a.568.568,0,0,0,.8.8l1.194-1.193A.57.57,0,0,0,2315.032,2454.651Zm0,24.33a.569.569,0,0,0-.8,0l-1.195,1.194a.568.568,0,0,0,.8.8l1.194-1.195A.568.568,0,0,0,2315.032,2478.98Zm-6.724.8,1.195,1.195a.568.568,0,1,0,.8-.8l-1.194-1.194a.57.57,0,0,0-.8,0h0A.571.571,0,0,0,2308.309,2479.784Zm6.724-34.312a.568.568,0,0,0-.8,0l-1.195,1.194a.569.569,0,0,0,.8.8l1.194-1.195A.568.568,0,0,0,2315.032,2445.472Zm0,28.458a.57.57,0,0,0-.8,0l-1.195,1.195a.568.568,0,0,0,.8.8l1.194-1.194A.57.57,0,0,0,2315.032,2473.93Zm-6.724-13.425,1.195,1.195a.568.568,0,0,0,.8-.8l-1.194-1.195a.57.57,0,0,0-.8,0h0A.571.571,0,0,0,2308.309,2460.5Zm0,5.051,1.195,1.194a.569.569,0,1,0,.8-.8l-1.194-1.194a.571.571,0,0,0-.8,0h0A.572.572,0,0,0,2308.309,2465.555Zm0,9.179,1.195,1.194a.568.568,0,1,0,.8-.8l-1.194-1.195a.572.572,0,0,0-.8,0h0A.573.573,0,0,0,2308.309,2474.734Zm1.195-27.265a.569.569,0,0,0,.8-.8l-1.194-1.194a.569.569,0,0,0-.8,0h0a.571.571,0,0,0,0,.8Zm5.529-7.049a.569.569,0,0,0-.8,0l-1.195,1.195a.568.568,0,0,0,.8.8l1.194-1.194A.569.569,0,0,0,2315.032,2440.421Zm-6.724,15.034,1.195,1.193a.568.568,0,1,0,.8-.8l-1.194-1.194a.571.571,0,0,0-.8,0h0A.572.572,0,0,0,2308.309,2455.455Zm-7.712,57.034-1.195,1.194a.568.568,0,0,0,.8.8l1.195-1.194a.568.568,0,0,0-.8-.8Zm-5.92-13.425,1.195,1.194a.568.568,0,0,0,.8-.8l-1.195-1.195a.568.568,0,0,0-.8.8Zm6.723-39.363a.549.549,0,0,0-.23-.133c-.223.6-.437,1.209-.649,1.816l.879-.879A.569.569,0,0,0,2301.4,2459.7Zm-6.723,63.693,1.195,1.194a.568.568,0,0,0,.8-.8l-1.195-1.195a.568.568,0,0,0-.8.8Zm1.195-28.186a.568.568,0,0,0,.8-.8l-1.195-1.194a.568.568,0,1,0-.8.8Zm-1.195,8.907,1.195,1.194a.569.569,0,1,0,.8-.8l-1.195-1.194a.568.568,0,0,0-.8.8Zm1.633,24.6a.568.568,0,0,0,.8-.8l-1.194-1.194a.568.568,0,0,0-.8.8Zm-1.633-10.373,1.195,1.195a.568.568,0,1,0,.8-.8l-1.195-1.195a.568.568,0,0,0-.8.8Zm2-32.314a.57.57,0,0,0,0-.8l-1.195-1.194a.565.565,0,0,0-.588-.13q-.083.494-.162.987l1.14,1.14A.571.571,0,0,0,2296.675,2486.029Zm.438,22.6-1.194-1.194a.569.569,0,0,0-.8.8l1.194,1.193a.568.568,0,1,0,.8-.8Zm4.287,23.135a.57.57,0,0,0-.8,0l-1.195,1.194s0,.01-.01.014q.6.194,1.23.373l.777-.777A.571.571,0,0,0,2301.4,2531.768Zm-4.725-55.84a.569.569,0,0,0,0-.8l-.053-.054q-.114.5-.222,1A.545.545,0,0,0,2296.675,2475.928Zm.438,13.426-1.194-1.194a.568.568,0,0,0-.8.8l1.194,1.194a.568.568,0,1,0,.8-.8Zm-.438-8.375a.569.569,0,0,0,0-.8l-.938-.938c-.089.451-.172.9-.257,1.35l.391.391A.569.569,0,0,0,2296.675,2480.978Zm-2,32.315,1.195,1.194a.568.568,0,1,0,.8-.8l-1.195-1.194a.568.568,0,1,0-.8.8Zm5.92-29.262-1.195,1.194a.568.568,0,0,0,.8.8l1.195-1.195a.57.57,0,0,0,0-.8h0A.569.569,0,0,0,2300.6,2484.031Zm.8-5.05a.569.569,0,0,0-.8,0l-1.195,1.194a.568.568,0,0,0,.8.8l1.195-1.195A.569.569,0,0,0,2301.4,2478.98Zm-2.437-8.1a.569.569,0,0,0,.8,0l1.194-1.194a.568.568,0,0,0-.8-.8l-1.194,1.194A.571.571,0,0,0,2298.963,2470.877Zm2.437-6.126a.57.57,0,0,0-.8,0l-1.195,1.194a.568.568,0,0,0,.8.8l1.195-1.194A.571.571,0,0,0,2301.4,2464.751Zm-.8,9.179-1.195,1.195a.568.568,0,0,0,.8.8l1.195-1.194a.568.568,0,0,0-.8-.8Zm-1.633,16.227a.57.57,0,0,0,.8,0l1.194-1.194a.568.568,0,0,0-.8-.8l-1.194,1.194A.57.57,0,0,0,2298.963,2490.157Zm1.633,3.052-1.195,1.194a.568.568,0,0,0,.8.8l1.195-1.194a.568.568,0,0,0-.8-.8Zm.8,29.38a.569.569,0,0,0-.8,0l-1.195,1.195a.568.568,0,0,0,.8.8l1.195-1.194A.57.57,0,0,0,2301.4,2522.589Zm-2.437,6.127a.57.57,0,0,0,.8,0l1.194-1.194a.568.568,0,1,0-.8-.8l-1.194,1.194A.571.571,0,0,0,2298.963,2528.716Zm2.437-30.457a.57.57,0,0,0-.8,0l-1.195,1.195a.568.568,0,0,0,.8.8l1.195-1.194A.57.57,0,0,0,2301.4,2498.26Zm-2.437,11.177a.57.57,0,0,0,.8,0l1.194-1.193a.568.568,0,0,0-.8-.8l-1.194,1.194A.57.57,0,0,0,2298.963,2509.436Zm2.437-6.126a.569.569,0,0,0-.8,0l-1.195,1.194a.568.568,0,0,0,.8.8l1.195-1.194A.57.57,0,0,0,2301.4,2503.31Zm13.633-19.28h0a.569.569,0,0,0-.8,0l-1.195,1.194a.569.569,0,0,0,.8.8l1.194-1.195A.568.568,0,0,0,2315.032,2484.031Zm54.142-29.38a.57.57,0,0,0-.8,0h0a.571.571,0,0,0,0,.8l1.194,1.193a.568.568,0,1,0,.8-.8Zm-7.714,19.279a.571.571,0,0,0-.8,0l-1.194,1.195a.568.568,0,0,0,.8.8l1.194-1.194A.57.57,0,0,0,2361.461,2473.93Zm0,19.28a.571.571,0,0,0-.8,0l-1.194,1.194a.569.569,0,0,0,.8.8l1.194-1.194A.57.57,0,0,0,2361.461,2493.209Zm0-14.229a.569.569,0,0,0-.8,0l-1.194,1.194a.568.568,0,0,0,.8.8l1.194-1.195A.569.569,0,0,0,2361.461,2478.98Zm0,5.05h0a.57.57,0,0,0-.8,0l-1.194,1.194a.569.569,0,0,0,.8.8l1.194-1.195A.569.569,0,0,0,2361.461,2484.031Zm0,19.28a.569.569,0,0,0-.8,0l-1.194,1.194a.569.569,0,0,0,.8.8l1.194-1.194A.569.569,0,0,0,2361.461,2503.31Zm0-5.051a.571.571,0,0,0-.8,0l-1.194,1.195a.568.568,0,0,0,.8.8l1.194-1.194A.57.57,0,0,0,2361.461,2498.26Zm0,14.229a.571.571,0,0,0-.8,0l-1.194,1.194a.569.569,0,0,0,.8.8l1.194-1.194A.57.57,0,0,0,2361.461,2512.489Zm0-67.017a.569.569,0,0,0-.8,0l-1.194,1.194a.569.569,0,0,0,.8.8l1.194-1.195A.569.569,0,0,0,2361.461,2445.472Zm0-5.051a.57.57,0,0,0-.8,0l-1.194,1.195a.568.568,0,0,0,.8.8l1.194-1.194A.57.57,0,0,0,2361.461,2440.421Zm0-5.05a.571.571,0,0,0-.8,0l-1.194,1.194a.569.569,0,0,0,.8.8l1.194-1.195A.569.569,0,0,0,2361.461,2435.371Zm0,19.28h0a.57.57,0,0,0-.8,0l-1.194,1.194a.568.568,0,0,0,.8.8l1.194-1.193A.57.57,0,0,0,2361.461,2454.651Zm0,10.1a.57.57,0,0,0-.8,0l-1.194,1.194a.569.569,0,0,0,.8.8l1.194-1.194A.57.57,0,0,0,2361.461,2464.751Zm0-5.05a.569.569,0,0,0-.8,0l-1.194,1.195a.569.569,0,0,0,.8.8l1.194-1.195A.569.569,0,0,0,2361.461,2459.7Zm-4.286,48.932-1.194-1.194a.569.569,0,0,0-.8.8l1.195,1.193a.568.568,0,1,0,.8-.8Zm3.483,13.956-1.194,1.195a.568.568,0,0,0,.8.8l1.194-1.194a.568.568,0,0,0-.8-.8Zm-3.483-52.515-1.194-1.194a.568.568,0,0,0-.8.8l1.195,1.194a.568.568,0,1,0,.8-.8Zm0-19.28-1.194-1.194a.569.569,0,0,0-.8.8l1.195,1.194a.568.568,0,0,0,.8-.8Zm-1.633-15.423a.568.568,0,0,0-.8.8l1.194,1.195a.568.568,0,0,0,.8-.8Zm.829,93.345a.568.568,0,0,0,.8-.8l-1.194-1.194a.568.568,0,0,0-.8.8Zm2.654-96.4a.571.571,0,0,0,.4.166c-.18-.124-.355-.251-.531-.378A.552.552,0,0,0,2359.025,2432.319Zm-1.85,57.035-1.194-1.194a.568.568,0,0,0-.8.8l1.195,1.194a.568.568,0,1,0,.8-.8Zm-1.194-59.033a.569.569,0,0,0-.8.8l1.195,1.194a.568.568,0,0,0,.8-.8Zm3.045,79.116a.57.57,0,0,0,.8,0l1.195-1.193a.569.569,0,0,0-.8-.8l-1.194,1.194A.57.57,0,0,0,2359.025,2509.436Zm2.436,8.1a.571.571,0,0,0-.8,0l-1.194,1.195a.569.569,0,0,0,.8.8l1.194-1.195A.569.569,0,0,0,2361.461,2517.539Zm-2.436-27.382a.57.57,0,0,0,.8,0l1.195-1.194a.568.568,0,0,0-.8-.8l-1.194,1.194A.57.57,0,0,0,2359.025,2490.157Zm0-19.279a.569.569,0,0,0,.8,0l1.195-1.194a.568.568,0,0,0-.8-.8l-1.194,1.194A.57.57,0,0,0,2359.025,2470.877Zm.8-19.28,1.195-1.194a.569.569,0,0,0-.8-.8l-1.194,1.194a.568.568,0,0,0,.8.8Zm8.542,23.136,1.194,1.194a.568.568,0,1,0,.8-.8l-1.195-1.195a.569.569,0,0,0-.8.8ZM2313.4,2451.6l1.194-1.194a.568.568,0,0,0-.8-.8l-1.194,1.194a.568.568,0,0,0,.8.8Zm-.8,19.28a.569.569,0,0,0,.8,0l1.194-1.194a.568.568,0,0,0-.8-.8l-1.194,1.194A.569.569,0,0,0,2312.6,2470.877Zm0,19.279a.569.569,0,0,0,.8,0l1.194-1.194a.568.568,0,0,0-.8-.8l-1.194,1.194A.569.569,0,0,0,2312.6,2490.157Zm56.578-49.736a.568.568,0,0,0-.8.8l1.194,1.194a.569.569,0,0,0,.2.126c-.151-.716-.3-1.377-.452-1.989Zm-55.336-3.052,1.194-1.195a.515.515,0,0,0-.076-.854q-.909,1.054-1.769,2.15A.566.566,0,0,0,2313.839,2437.369Zm0,96.4,1.194-1.194a.568.568,0,0,0-.8-.8l-1.195,1.194a.571.571,0,0,0,0,.8h0A.57.57,0,0,0,2313.839,2533.766Zm-1.242-24.33a.569.569,0,0,0,.8,0l1.194-1.193a.568.568,0,0,0-.8-.8l-1.194,1.194A.569.569,0,0,0,2312.6,2509.436Zm0,19.28a.57.57,0,0,0,.8,0l1.194-1.194a.568.568,0,1,0-.8-.8l-1.194,1.194A.57.57,0,0,0,2312.6,2528.716Zm2.436-30.457a.57.57,0,0,0-.8,0l-1.195,1.195a.568.568,0,0,0,.8.8l1.194-1.194A.569.569,0,0,0,2315.032,2498.26Zm0,14.229a.57.57,0,0,0-.8,0l-1.195,1.194a.569.569,0,0,0,.8.8l1.194-1.194A.57.57,0,0,0,2315.032,2512.489Zm0-9.178a.569.569,0,0,0-.8,0l-1.195,1.194a.569.569,0,0,0,.8.8l1.194-1.194A.569.569,0,0,0,2315.032,2503.31Zm0,19.279a.569.569,0,0,0-.8,0l-1.195,1.195a.568.568,0,0,0,.8.8l1.194-1.194A.569.569,0,0,0,2315.032,2522.589Zm53.339-19.279a.57.57,0,0,0,0,.8l.326.326c.1-.417.2-.834.294-1.251A.569.569,0,0,0,2368.371,2503.31Zm-53.339,14.229a.571.571,0,0,0-.8,0l-1.195,1.195a.569.569,0,0,0,.8.8l1.194-1.195A.569.569,0,0,0,2315.032,2517.539Zm53.339-37.755,1.194,1.195a.568.568,0,1,0,.8-.8l-1.195-1.194a.568.568,0,0,0-.8.8Zm0,14.23,1.194,1.194a.568.568,0,1,0,.8-.8l-1.195-1.194a.569.569,0,0,0-.8.8Zm0-9.18,1.194,1.195a.569.569,0,0,0,.8-.8l-1.195-1.194a.57.57,0,0,0-.8,0h0A.569.569,0,0,0,2368.371,2484.834Zm-53.339,8.375a.57.57,0,0,0-.8,0l-1.195,1.194a.568.568,0,0,0,.8.8l1.194-1.194A.57.57,0,0,0,2315.032,2493.209Zm53.339-27.654,1.194,1.194a.569.569,0,1,0,.8-.8l-1.195-1.194a.568.568,0,1,0-.8.8Zm1.242-15.955a.568.568,0,1,0-.8.8L2370,2451.6a.568.568,0,0,0,.8-.8Zm-.048,12.1a.569.569,0,1,0,.8-.8l-1.195-1.195a.568.568,0,0,0-.8.8Zm1.242,27.654-1.195-1.194a.568.568,0,0,0-.8.8l1.194,1.194a.568.568,0,1,0,.8-.8Zm-.438-41.884a.572.572,0,0,0,0-.8l-1.195-1.194a.568.568,0,0,0-.8.8l1.194,1.195A.572.572,0,0,0,2370.369,2447.47Zm-2,50.79a.57.57,0,0,0,0,.8l1.194,1.194a.57.57,0,0,0,.061.04q.135-.662.263-1.324l-.714-.714A.571.571,0,0,0,2368.371,2498.26Zm-13.632,25.134,1.194,1.194a.568.568,0,0,0,.8-.8l-1.194-1.195a.568.568,0,0,0-.8.8Zm16.069-53.319-1.195-1.194a.568.568,0,1,0-.8.8l1.194,1.194a.568.568,0,1,0,.8-.8Z" transform="translate(-2243.329 -2343.773)" fill="#eed095"/>
          <path id="Path_1748" data-name="Path 1748" d="M2397.737,2392.265s-.314-11.59-5.534-14.3c-.626-.1-17.124,6.683-19.108,5.952-2.715.417-2.28,2.834-2.715,3.028s-1.682.1-1.044-2.61-1.909-8.265-6.265-3.759-1.368,11.659,3.649,10.632c1.154.8,6.464,9.066-4.127,7.779S2348.8,2380.4,2352.42,2369.4s22-23.529,38.007-15.314c7.656,3.619,11.392,13.845,11.961,21.192S2399.213,2391.33,2397.737,2392.265Z" transform="translate(-2252.629 -2332.86)" fill="#295000"/>
          <path id="Path_1749" data-name="Path 1749" d="M2364.09,2349.865s-5.582-27.148-33.706-19.213-38.565,46.639-49.842,48.171-53.043,2.088-46.639,29.237,44.551-4.594,58.2-7.24,22.832-4.316,27.7-10.163,10.581-27.287,17.542-26.034S2364.09,2349.865,2364.09,2349.865Z" transform="translate(-2233.24 -2329.199)" fill="#295000"/>
          <path id="Path_1750" data-name="Path 1750" d="M2324.7,2441.676s-9.2,12.74-5.162,36.611c2.875,16.988,13.266,31.944,28.67,39.663,7.577,3.8,15.075,5.317,20.372,4.347.085-.248,3.73-12.132,4.159-13.968S2316.428,2481.865,2324.7,2441.676Z" transform="translate(-2247.281 -2347.72)" fill="#fda428"/>
          <path id="Path_1751" data-name="Path 1751" d="M2364.4,2491.293a195.062,195.062,0,0,1,60.4,19.53,27.52,27.52,0,0,1,9.183,7.619c2.8,3.693,4.051,7.31,2.829,9.075-1.88,2.715-7.727-5.43-20.883-7.309s-51.164,3.55-59.309-2.715c-7.272-5.594-10.715-21.01.522-25.439A14.343,14.343,0,0,1,2364.4,2491.293Z" transform="translate(-2252.45 -2355.864)" fill="#fac896"/>
          <path id="Path_1752" data-name="Path 1752" d="M2370.911,2492.38H2374s-8.993,19.367-8,27.986c.23.334-8.282-.773-9.7-3.878S2370.911,2492.38,2370.911,2492.38Z" transform="translate(-2253.489 -2356.069)" fill="#f39c55"/>
          <path id="Path_1753" data-name="Path 1753" d="M2320.451,2457.632s2.506,50.329,34.875,52c-.835-.626,6.917-25.477,17.554-26-.01.258-13.138-23.512-18.849-39.173a16.746,16.746,0,0,0-21.093-10.3C2326.563,2436.409,2320.9,2442.686,2320.451,2457.632Z" transform="translate(-2247.601 -2346.333)" fill="#fcbc2e"/>
          <path id="Path_1754" data-name="Path 1754" d="M2342.282,2459.338l-1.194,1.195a.568.568,0,0,1-.8-.8l1.194-1.195a.568.568,0,0,1,.8.8Zm0,8.376a.569.569,0,0,0-.8,0l-1.194,1.194a.568.568,0,0,0,.8.8l1.194-1.194A.569.569,0,0,0,2342.282,2467.714Zm-6.723-13.425,1.194,1.193a.568.568,0,0,0,.8-.8l-1.194-1.194a.568.568,0,1,0-.8.8Zm6.723,18.475a.571.571,0,0,0-.8,0l-1.194,1.194a.568.568,0,0,0,.8.8l1.194-1.194A.57.57,0,0,0,2342.282,2472.764Zm-1.632-27.382,1.194-1.194a.569.569,0,0,0-.8-.8l-1.194,1.194a.568.568,0,0,0,.8.8Zm1.632,46.661a.571.571,0,0,0-.8,0l-1.194,1.195a.568.568,0,0,0,.8.8l1.194-1.194A.57.57,0,0,0,2342.282,2492.043Zm-2.436-8.1a.571.571,0,0,0,.8,0l1.194-1.195a.568.568,0,0,0-.8-.8l-1.194,1.193A.57.57,0,0,0,2339.846,2483.942Zm0,19.279a.571.571,0,0,0,.8,0l1.194-1.194a.569.569,0,0,0-.8-.8l-1.194,1.194A.57.57,0,0,0,2339.846,2503.221Zm2.436-6.127a.571.571,0,0,0-.8,0l-1.194,1.195a.568.568,0,0,0,.8.8l1.194-1.194A.57.57,0,0,0,2342.282,2497.094Zm0-10.1a.569.569,0,0,0-.8,0l-1.194,1.194a.568.568,0,0,0,.8.8l1.194-1.194A.569.569,0,0,0,2342.282,2486.994Zm-5.529-50.791a.568.568,0,0,0,.8-.8l-1.194-1.194a.569.569,0,0,0-.8.8Zm-1.194,3.856,1.194,1.195a.568.568,0,0,0,.8-.8l-1.194-1.194a.568.568,0,0,0-.8.8Zm.8,51.984a.569.569,0,0,0-.8.8l1.194,1.194a.568.568,0,0,0,.8-.8Zm-.8-42.8,1.194,1.194a.568.568,0,0,0,.8-.8l-1.194-1.194a.568.568,0,0,0-.8.8Zm6.723-9.983a.571.571,0,0,0-.8,0l-1.194,1.194a.568.568,0,0,0,.8.8l1.194-1.195A.569.569,0,0,0,2342.282,2439.256Zm-4.725,48.932-1.194-1.194a.568.568,0,0,0-.8.8l1.194,1.194a.568.568,0,0,0,.8-.8Zm4.725-34.7a.571.571,0,0,0-.8,0l-1.194,1.194a.568.568,0,0,0,.8.8l1.194-1.193A.57.57,0,0,0,2342.282,2453.485Zm0-5.05a.57.57,0,0,0-.8,0l-1.194,1.194a.568.568,0,0,0,.8.8l1.194-1.194A.57.57,0,0,0,2342.282,2448.435Zm0-14.23a.571.571,0,0,0-.8,0l-1.194,1.194a.568.568,0,0,0,.8.8l1.194-1.194A.57.57,0,0,0,2342.282,2434.205Zm0,43.609a.571.571,0,0,0-.8,0l-1.194,1.195a.568.568,0,0,0,.8.8l1.194-1.194A.569.569,0,0,0,2342.282,2477.814Zm-13.633-10.1a.569.569,0,0,0-.8,0l-1.195,1.194a.568.568,0,0,0,.8.8l1.194-1.194A.569.569,0,0,0,2328.649,2467.714Zm0-9.179a.57.57,0,0,0-.8,0l-1.195,1.195a.568.568,0,0,0,.8.8l1.194-1.195A.568.568,0,0,0,2328.649,2458.535Zm0-5.05a.57.57,0,0,0-.8,0l-1.195,1.194a.568.568,0,0,0,.8.8l1.194-1.193A.569.569,0,0,0,2328.649,2453.485Zm0-14.229a.57.57,0,0,0-.8,0l-1.195,1.194a.568.568,0,0,0,.8.8l1.194-1.195A.568.568,0,0,0,2328.649,2439.256Zm0,9.179a.569.569,0,0,0-.8,0l-1.195,1.194a.568.568,0,0,0,.8.8l1.194-1.194A.569.569,0,0,0,2328.649,2448.435Zm-1.632-3.052,1.194-1.194a.568.568,0,0,0-.8-.8l-1.194,1.194a.568.568,0,0,0,.8.8Zm.829,32.432-1.195,1.195a.568.568,0,0,0,.8.8l1.194-1.194a.568.568,0,0,0-.8-.8Zm-1.633-13.152a.572.572,0,0,0,.8,0l1.194-1.194a.568.568,0,0,0-.8-.8l-1.194,1.194A.571.571,0,0,0,2326.213,2464.662Zm2.436,8.1a.57.57,0,0,0-.8,0l-1.195,1.194a.568.568,0,0,0,.8.8l1.194-1.194A.57.57,0,0,0,2328.649,2472.764Zm-6.285-10.1a.572.572,0,0,0,0,.8l1.195,1.194a.568.568,0,0,0,.8-.8l-1.195-1.194A.57.57,0,0,0,2322.365,2462.664Zm1.56,12.1a.57.57,0,0,0,0-.8l-1.05-1.05q.227.979.482,1.987A.565.565,0,0,0,2323.924,2474.762Zm2.289,9.18a.571.571,0,0,0,.8,0l1.194-1.195a.568.568,0,0,0-.8-.8l-1.194,1.193a.564.564,0,0,0-.161.43c.038.1.076.2.114.3A.592.592,0,0,0,2326.213,2483.942Zm2.436,3.052a.569.569,0,0,0-.8,0l-.283.282q.246.556.5,1.105l.584-.584A.568.568,0,0,0,2328.649,2486.994Zm-5.529-17.282a.568.568,0,0,0,.8-.8l-1.194-1.194a.57.57,0,0,0-.8,0,.564.564,0,0,0-.089.135c.042.233.084.469.129.708Zm16.726-5.05a.571.571,0,0,0,.8,0l1.194-1.194a.569.569,0,0,0-.8-.8l-1.194,1.194A.57.57,0,0,0,2339.846,2464.662Zm-17.92-10.373,1.195,1.193a.568.568,0,0,0,.8-.8l-1.194-1.194a.569.569,0,1,0-.8.8Zm1.195-3.857a.568.568,0,0,0,.8-.8l-1.194-1.194a.569.569,0,1,0-.8.8Zm1.242-5.05a.57.57,0,0,0,0-.8l-1.036-1.035c-.164.365-.32.745-.472,1.135l.7.7A.57.57,0,0,0,2324.363,2445.382Zm-1.242,15.151a.568.568,0,0,0,.8-.8l-1.194-1.195a.568.568,0,0,0-.8.8Zm43.273,26.461a.568.568,0,0,0-.8.8l.049.049q.39-.425.792-.816Zm-14.437-8.376,1.194,1.194a.568.568,0,1,0,.8-.8l-1.195-1.195a.568.568,0,0,0-.8.8Zm0-5.05,1.194,1.194a.568.568,0,0,0,.8-.8l-1.195-1.194a.569.569,0,0,0-.8.8Zm0,19.28,1.194,1.194a.568.568,0,0,0,.8-.8l-1.195-1.195a.569.569,0,0,0-.8.8Zm0-24.33,1.194,1.194a.568.568,0,0,0,.8-.8l-1.195-1.194a.568.568,0,0,0-.8.8Zm0,19.279,1.194,1.194a.568.568,0,1,0,.8-.8l-1.195-1.194a.568.568,0,0,0-.8.8Zm0-33.508,1.194,1.193a.568.568,0,1,0,.8-.8l-1.195-1.194a.568.568,0,1,0-.8.8Zm0,5.049,1.194,1.195a.568.568,0,1,0,.8-.8l-1.195-1.195a.568.568,0,0,0-.8.8Zm4.725-3.856a.569.569,0,0,0,.8,0l.828-.827q-.249-.559-.494-1.114l-1.138,1.138A.569.569,0,0,0,2356.682,2455.482Zm-3.531-5.05a.568.568,0,0,0,.8-.8l-1.195-1.194a.568.568,0,0,0-.8.8Zm17.164,28.577a.564.564,0,0,0,.574.936q-.253-.466-.53-.98Zm-12.877,22.214-1.195,1.194a.568.568,0,0,0,.8.8l.041-.04c.248-.677.519-1.382.814-2.112A.559.559,0,0,0,2357.438,2501.223Zm13.633-19.279-1.195,1.193a.569.569,0,0,0,.8.8l1.194-1.195a.568.568,0,0,0-.8-.8Zm-12.391-23.409a.571.571,0,0,0-.8,0l-1.194,1.195a.568.568,0,0,0,.8.8l1.194-1.195A.568.568,0,0,0,2358.68,2458.535Zm-5.529,49.737a.569.569,0,0,0,.8-.8l-1.195-1.194a.568.568,0,0,0-.8.8Zm1.242-25.135-1.195-1.193a.568.568,0,0,0-.8.8l1.195,1.195a.569.569,0,0,0,.8-.8Zm-.8,20.084a.568.568,0,0,0,.8-.8l-1.195-1.194a.568.568,0,0,0-.8.8Zm-1.195-59.836a.569.569,0,0,0,0,.8l1.195,1.194a.57.57,0,0,0,.8,0,.561.561,0,0,0,.048-.072c-.1-.276-.209-.555-.307-.825-.036-.1-.083-.19-.121-.287l-.814-.813A.568.568,0,0,0,2352.4,2443.385Zm-.438,54.514,1.194,1.194a.568.568,0,0,0,.8-.8l-1.195-1.195a.569.569,0,0,0-.8.8Zm2.437-34.041-1.195-1.194a.568.568,0,0,0-.8.8l1.195,1.194a.568.568,0,0,0,.8-.8Zm12.39,10.9a.568.568,0,0,0,.8-.8l-1.194-1.194a.569.569,0,0,0-.8.8ZM2338,2444.578l-1.194-1.194a.569.569,0,0,0-.8.8l1.195,1.194a.568.568,0,0,0,.8-.8Zm27.594,34.04,1.194,1.194a.568.568,0,0,0,.8-.8l-1.194-1.195a.568.568,0,0,0-.8.8ZM2338,2463.858l-1.194-1.194a.569.569,0,1,0-.8.8l1.195,1.194a.569.569,0,1,0,.8-.8Zm0,38.559-1.194-1.194a.561.561,0,0,0-.211-.129q.7.708,1.438,1.373A.573.573,0,0,0,2338,2502.417Zm-1.242-3.325a.568.568,0,0,0,.8-.8l-1.194-1.195a.569.569,0,0,0-.8.8Zm-1.194-30.574,1.194,1.194a.568.568,0,0,0,.8-.8l-1.194-1.194a.568.568,0,0,0-.8.8Zm0,5.05,1.194,1.194a.568.568,0,0,0,.8-.8l-1.194-1.194a.569.569,0,0,0-.8.8Zm2.436,9.569-1.194-1.193a.569.569,0,1,0-.8.8l1.195,1.195a.569.569,0,0,0,.8-.8Zm-2.436-4.519,1.194,1.194a.568.568,0,0,0,.8-.8l-1.194-1.195a.568.568,0,0,0-.8.8Zm23.121,8.376a.57.57,0,0,0-.8,0l-1.194,1.194a.568.568,0,0,0,.8.8l1.194-1.194A.568.568,0,0,0,2358.68,2486.994Zm0-9.179a.571.571,0,0,0-.8,0l-1.194,1.195a.568.568,0,0,0,.8.8l1.194-1.194A.568.568,0,0,0,2358.68,2477.814Zm-.8,19.279-1.194,1.195a.568.568,0,0,0,.8.8l1.194-1.194a.569.569,0,0,0-.8-.8Zm.8-29.379a.57.57,0,0,0-.8,0l-1.194,1.194a.568.568,0,0,0,.8.8l1.194-1.194A.569.569,0,0,0,2358.68,2467.714Zm0,5.05a.571.571,0,0,0-.8,0l-1.194,1.194a.568.568,0,0,0,.8.8l1.194-1.194A.57.57,0,0,0,2358.68,2472.764Zm-1.633-8.1,1.195-1.194a.568.568,0,0,0-.8-.8l-1.195,1.194a.568.568,0,0,0,.8.8Zm-.8,19.28a.571.571,0,0,0,.8,0l1.195-1.195a.568.568,0,0,0-.8-.8l-1.195,1.193A.571.571,0,0,0,2356.244,2483.942Zm10.979,0a.569.569,0,1,0,.8-.8l-1.195-1.193a.568.568,0,0,0-.8.8Zm-31.663-24.6,1.194,1.195a.568.568,0,0,0,.8-.8l-1.194-1.195a.568.568,0,0,0-.8.8Zm23.121,32.705a.571.571,0,0,0-.8,0l-1.194,1.195a.568.568,0,0,0,.8.8l1.194-1.194A.57.57,0,0,0,2358.68,2492.043Z" transform="translate(-2247.816 -2346.463)" fill="#eed095"/>
          <g id="Laptop" transform="translate(125.461 108.088)">
            <path id="Path_1755" data-name="Path 1755" d="M2516.777,2522.774H2453.4a3.408,3.408,0,0,1-2.994-4.925l27.854-57.36a3.335,3.335,0,0,1,2.994-1.9h63.376a3.408,3.408,0,0,1,2.994,4.924l-27.855,57.36A3.335,3.335,0,0,1,2516.777,2522.774Z" transform="translate(-2394.403 -2458.594)" fill="#81cb34"/>
            <path id="Path_2339" data-name="Path 2339" d="M1.84,0H67.2a1.84,1.84,0,0,1,1.84,1.84h0a1.84,1.84,0,0,1-1.84,1.84H1.84A1.84,1.84,0,0,1,0,1.84H0A1.84,1.84,0,0,1,1.84,0Z" transform="translate(0 60.433)" fill="#81cb34"/>
            <circle id="Ellipse_219" data-name="Ellipse 219" cx="8.875" cy="8.875" r="8.875" transform="translate(98.244 23.214)" fill="#c6ddff"/>
          </g>
          <g id="Desk" transform="translate(105.429 172.201)">
            <path id="Path_2338" data-name="Path 2338" d="M7.244,0H213.7a7.244,7.244,0,0,1,7.244,7.244h0a7.244,7.244,0,0,1-7.244,7.244H7.244A7.244,7.244,0,0,1,0,7.244H0A7.244,7.244,0,0,1,7.244,0Z" transform="translate(0 0)" fill="#3c6f06"/>
            <path id="Path_2337" data-name="Path 2337" d="M4.953,0h0A4.953,4.953,0,0,1,9.907,4.953V162.048A4.953,4.953,0,0,1,4.953,167h0A4.953,4.953,0,0,1,0,162.048V4.953A4.953,4.953,0,0,1,4.953,0Z" transform="translate(10.126 7.244)" fill="#3c6f06"/>
            <path id="Path_2336" data-name="Path 2336" d="M4.953,0h0A4.953,4.953,0,0,1,9.907,4.953V162.048A4.953,4.953,0,0,1,4.953,167h0A4.953,4.953,0,0,1,0,162.048V4.953A4.953,4.953,0,0,1,4.953,0Z" transform="translate(195.987 7.244)" fill="#3c6f06"/>
          </g>
          <circle id="Ellipse_220" data-name="Ellipse 220" cx="1.292" cy="1.292" r="1.292" transform="translate(139.649 59.219)" fill="#231f20"/>
          <circle id="Ellipse_221" data-name="Ellipse 221" cx="1.292" cy="1.292" r="1.292" transform="translate(129.528 54.308)" fill="#231f20"/>
          <g id="Group_829" data-name="Group 829" transform="translate(136.798 56.455)">
            <path id="Path_1756" data-name="Path 1756" d="M2397.12,2402.845a5,5,0,1,1,5.948,3.814A5,5,0,0,1,2397.12,2402.845Zm.427-.093a4.56,4.56,0,1,0,3.481-5.428A4.564,4.564,0,0,0,2397.547,2402.752Z" transform="translate(-2397.004 -2396.782)" fill="#fff"/>
          </g>
          <g id="Group_830" data-name="Group 830" transform="translate(123.934 50.645)">
            <path id="Path_1757" data-name="Path 1757" d="M2381.734,2396.615a5.593,5.593,0,1,1,6.657,4.271A5.6,5.6,0,0,1,2381.734,2396.615Zm.478-.1a5.1,5.1,0,1,0,3.9-6.076A5.109,5.109,0,0,0,2382.212,2396.51Z" transform="translate(-2381.604 -2389.828)" fill="#fff"/>
          </g>
          <g id="Group_831" data-name="Group 831" transform="translate(134.574 57.4)">
            <path id="Path_2335" data-name="Path 2335" d="M0,0H.535V3.3H0Z" transform="matrix(0.421, -0.907, 0.907, 0.421, 0, 0.485)" fill="#fff"/>
          </g>
          <g id="Group_832" data-name="Group 832" transform="translate(131.259 58.733)">
            <path id="Path_1758" data-name="Path 1758" d="M2393.312,2406.09l.064-.016c1.207-.321,1.753-4.881,1.892-6.271a.267.267,0,0,0-.532-.053c-.266,2.673-.915,5.653-1.5,5.807-.415.105-1.15-.012-2.349-1.217l-.062-.061a.267.267,0,0,0-.373.383l.056.056C2391.587,2405.8,2392.53,2406.261,2393.312,2406.09Z" transform="translate(-2390.373 -2399.51)" fill="#f97700"/>
          </g>
          <g id="Group_833" data-name="Group 833" transform="translate(127.935 67.681)">
            <path id="Path_1759" data-name="Path 1759" d="M2390.63,2412.65a4.734,4.734,0,0,0,.775-.237.4.4,0,0,0,.219-.521.407.407,0,0,0-.522-.222c-.118.049-2.9,1.139-3.94-1.21a.4.4,0,0,0-.733.324A3.473,3.473,0,0,0,2390.63,2412.65Z" transform="translate(-2386.395 -2410.221)" fill="#f97700"/>
          </g>
          <path id="Path_1760" data-name="Path 1760" d="M2393.627,2390.68a.312.312,0,0,1-.3-.238,2.3,2.3,0,0,0-2.942-1.614.309.309,0,0,1-.375-.236.313.313,0,0,1,.235-.375,2.926,2.926,0,0,1,3.69,2.077.312.312,0,0,1-.229.377A.325.325,0,0,1,2393.627,2390.68Z" transform="translate(-2259.052 -2338.899)" fill="#231f20"/>
          <path id="Path_1761" data-name="Path 1761" d="M2405.219,2396.39a.313.313,0,0,1-.3-.238,2.294,2.294,0,0,0-2.942-1.614.313.313,0,0,1-.14-.61,2.928,2.928,0,0,1,3.691,2.076.313.313,0,0,1-.23.377A.321.321,0,0,1,2405.219,2396.39Z" transform="translate(-2260.961 -2339.839)" fill="#231f20"/>
        </g>
        <g id="ball" transform="translate(353.662 637.057)">
          <ellipse id="Ellipse_212" data-name="Ellipse 212" cx="17.777" cy="16.95" rx="17.777" ry="16.95" fill="#3478f6"/>
          <path id="Path_1683" data-name="Path 1683" d="M2511.615,2705.641s6.874,4.926,7.167,8.732,10.865-2.159,10.865-2.159a17.562,17.562,0,0,0-9.543-6.3A18.209,18.209,0,0,0,2511.615,2705.641Z" transform="translate(-2497.494 -2705.282)" fill="#2355f5"/>
          <path id="Path_1684" data-name="Path 1684" d="M2530.119,2712.469s-7.015.745-10.06,3.088,5.031,22.719,5.031,22.719,9.242-4.509,9.22-14.171A16.186,16.186,0,0,0,2530.119,2712.469Z" transform="translate(-2498.771 -2706.465)" fill="#3478f6"/>
          <path id="Path_1685" data-name="Path 1685" d="M2516.086,2716.135s-12.646-2.359-20.843,11.643c.038.145,1.654,8.05,9.317,11.348C2504.794,2739.237,2516.789,2721.463,2516.086,2716.135Z" transform="translate(-2494.798 -2707.044)" fill="#c6ddff"/>
          <path id="Path_1686" data-name="Path 1686" d="M2523.6,2738.534s3.159-17.686-5.682-22.369c0,0,1.771,3.182-11.527,22.991A19.125,19.125,0,0,0,2523.6,2738.534Z" transform="translate(-2496.635 -2707.073)" fill="#fff"/>
        </g>
      </g>
    </g>
    <g id="Group_888" data-name="Group 888" transform="translate(525.448 556.851)">
      <g id="Group_878" data-name="Group 878" transform="translate(5.702 47.811)">
        <path id="Path_1837" data-name="Path 1837" d="M3373.62,2881a8.72,8.72,0,1,1,8.309-8.709A8.527,8.527,0,0,1,3373.62,2881Z" transform="translate(-3365.31 -2863.578)" fill="#499d75"/>
      </g>
      <g id="Group_879" data-name="Group 879" transform="translate(0 0)">
        <path id="Path_1838" data-name="Path 1838" d="M3369.031,2842.515a8.72,8.72,0,1,1,8.308-8.71A8.527,8.527,0,0,1,3369.031,2842.515Zm0-14.689a5.984,5.984,0,1,0,5.7,5.979A5.852,5.852,0,0,0,3369.031,2827.826Z" transform="translate(-3360.721 -2825.094)" fill="#ef8923"/>
      </g>
      <g id="Group_887" data-name="Group 887" transform="translate(37.81 10.502)">
        <g id="Group_882" data-name="Group 882" transform="translate(8.068)">
          <g id="Group_880" data-name="Group 880">
            <path id="Path_1839" data-name="Path 1839" d="M3398.952,2842.306a1.337,1.337,0,0,1-1.3-1.367v-6.026a1.3,1.3,0,1,1,2.607,0v6.026A1.336,1.336,0,0,1,3398.952,2842.306Z" transform="translate(-3397.649 -2833.546)" fill="#f3c04c"/>
          </g>
          <g id="Group_881" data-name="Group 881" transform="translate(0 10.544)">
            <path id="Path_1840" data-name="Path 1840" d="M3398.952,2850.792a1.336,1.336,0,0,1-1.3-1.366V2843.4a1.3,1.3,0,1,1,2.607,0v6.026A1.336,1.336,0,0,1,3398.952,2850.792Z" transform="translate(-3397.649 -2842.033)" fill="#f3c04c"/>
          </g>
        </g>
        <g id="Group_886" data-name="Group 886" transform="translate(0 8.285)">
          <g id="Group_884" data-name="Group 884" transform="translate(10.973)">
            <g id="Group_883" data-name="Group 883">
              <path id="Path_1841" data-name="Path 1841" d="M3406.454,2842.948h-5.164a1.368,1.368,0,0,1,0-2.732h5.164a1.367,1.367,0,0,1,0,2.732Z" transform="translate(-3399.988 -2840.216)" fill="#f3c04c"/>
            </g>
          </g>
          <g id="Group_885" data-name="Group 885">
            <path id="Path_1842" data-name="Path 1842" d="M3397.622,2842.948h-5.162a1.367,1.367,0,0,1,0-2.732h5.162a1.367,1.367,0,0,1,0,2.732Z" transform="translate(-3391.155 -2840.216)" fill="#f3c04c"/>
          </g>
        </g>
      </g>
    </g>
  </g>
</svg>
