<svg xmlns="http://www.w3.org/2000/svg" width="30.614" height="30.808" viewBox="0 0 30.614 30.808">
  <path id="Vector" d="M17.72,2.5l-.082,4.422A2.427,2.427,0,0,0,18.5,8.692L21.4,10.885c1.855,1.4,1.552,3.115-.665,3.815l-3.768,1.178A2.432,2.432,0,0,0,15.5,17.407l-.9,3.43c-.712,2.707-2.485,2.975-3.955.595L8.6,18.107a2.4,2.4,0,0,0-1.96-1.027l-3.9.2c-2.788.14-3.582-1.47-1.762-3.593L3.288,11A2.428,2.428,0,0,0,3.72,8.937L2.53,5.157c-.688-2.217.548-3.442,2.753-2.718L8.725,3.57a2.435,2.435,0,0,0,1.948-.3L14.267.677c1.948-1.388,3.5-.572,3.453,1.82Z" transform="translate(0 10.265) rotate(-27)" fill="#f3b411"/>
</svg>
